<?xml version="1.0" standalone="no"?>
<!DOCTYPE svg PUBLIC "-//W3C//DTD SVG 20010904//EN"
 "http://www.w3.org/TR/2001/REC-SVG-20010904/DTD/svg10.dtd">
<svg version="1.0" xmlns="http://www.w3.org/2000/svg"
 width="957.000000pt" height="860.000000pt" viewBox="0 0 957.000000 860.000000"
 preserveAspectRatio="xMidYMid meet">
<metadata>
Created by potrace 1.16, written by Peter Selinger 2001-2019
</metadata>
<g transform="translate(0.000000,860.000000) scale(0.100000,-0.100000)"
fill="#000000" stroke="none">
<path d="M1922 7928 c3 -7 19 -14 36 -16 l32 -3 0 -220 0 -219 -35 0 c-24 0
-35 -5 -35 -15 0 -12 18 -15 100 -15 82 0 100 3 100 15 0 10 -10 15 -30 15
l-30 0 0 110 0 111 133 -3 132 -3 0 -105 0 -105 -32 -3 c-21 -2 -33 -9 -33
-18 0 -11 20 -14 100 -14 82 0 100 3 100 15 0 10 -11 15 -35 15 l-35 0 0 220
0 220 35 0 c24 0 35 5 35 15 0 12 -18 15 -100 15 -82 0 -100 -3 -100 -15 0
-10 11 -15 35 -15 l35 0 0 -90 0 -90 -135 0 -135 0 0 90 0 90 30 0 c20 0 30 5
30 15 0 12 -18 15 -101 15 -76 0 -100 -3 -97 -12z"/>
<path d="M5260 7925 c0 -10 10 -15 30 -15 l30 0 0 -220 0 -220 -30 0 c-20 0
-30 -5 -30 -15 0 -13 27 -15 179 -15 l179 0 6 31 c3 17 6 44 6 60 0 43 -26 37
-37 -8 l-9 -38 -97 -3 -97 -3 0 106 0 105 80 0 c73 0 80 2 80 20 0 18 -7 20
-80 20 l-80 0 0 85 0 86 87 -3 87 -3 8 -32 c12 -45 43 -46 34 -2 -3 17 -6 42
-6 55 l0 24 -170 0 c-144 0 -170 -2 -170 -15z"/>
<path d="M7438 7906 c-23 -8 -27 -16 -30 -55 -3 -38 -7 -46 -27 -51 -35 -8
-37 -28 -4 -32 l28 -3 5 -141 c6 -159 13 -178 76 -190 40 -7 119 17 119 37 0
15 -12 16 -62 5 -25 -6 -36 -3 -52 13 -19 19 -21 33 -21 151 l0 130 60 0 c47
0 60 3 60 15 0 12 -13 15 -60 15 l-59 0 -3 58 -3 58 -27 -10z"/>
<path d="M2607 7816 c-77 -28 -120 -95 -121 -191 -2 -151 130 -235 267 -170
38 18 45 43 11 37 -85 -14 -125 -13 -149 2 -30 19 -50 58 -58 109 l-6 37 130
0 129 0 0 43 c0 47 -26 98 -62 120 -35 23 -98 28 -141 13z m108 -51 c16 -15
25 -36 25 -55 l0 -30 -91 0 -91 0 6 28 c4 15 20 39 37 55 38 35 81 36 114 2z"/>
<path d="M2898 7813 c-51 -15 -64 -33 -23 -33 l25 0 0 -155 0 -155 -25 0 c-16
0 -25 -6 -25 -15 0 -12 17 -15 90 -15 73 0 90 3 90 15 0 10 -11 15 -35 15
l-35 0 0 121 0 120 32 30 c35 31 49 35 78 19 16 -8 22 -6 36 15 18 28 12 42
-21 45 -41 4 -54 -1 -89 -37 l-36 -37 0 36 c0 20 -3 39 -7 41 -5 3 -29 -2 -55
-10z"/>
<path d="M3206 7817 c-43 -13 -60 -37 -27 -37 20 0 21 -5 21 -155 l0 -155 -25
0 c-16 0 -25 -6 -25 -15 0 -12 16 -15 80 -15 63 0 80 3 80 14 0 8 -10 16 -22
18 -23 3 -23 6 -23 137 l0 133 50 20 c59 23 103 15 122 -22 8 -16 13 -70 13
-147 l0 -123 -25 0 c-16 0 -25 -6 -25 -15 0 -12 16 -15 80 -15 64 0 80 3 80
15 0 9 -9 15 -25 15 l-25 0 0 134 c0 95 4 137 13 144 26 22 98 34 128 22 40
-17 51 -62 47 -190 -3 -100 -4 -105 -25 -108 -13 -2 -23 -10 -23 -18 0 -11 17
-14 80 -14 64 0 80 3 80 15 0 9 -9 15 -25 15 l-25 0 0 118 c0 64 -5 133 -10
153 -27 96 -126 112 -232 36 -15 -10 -20 -8 -33 10 -34 49 -128 50 -188 3 -33
-26 -37 -25 -37 10 0 33 1 33 -54 17z"/>
<path d="M3961 7819 c-45 -14 -81 -38 -81 -55 0 -18 11 -18 46 1 45 23 82 19
115 -14 22 -23 29 -39 29 -69 l0 -39 -47 -6 c-121 -16 -173 -49 -173 -112 0
-41 32 -80 75 -91 37 -9 96 10 125 41 l23 25 19 -30 c12 -20 26 -30 42 -30 27
0 45 18 29 29 -25 16 -33 56 -33 160 0 60 -4 121 -10 135 -18 48 -93 74 -159
55z m109 -252 c0 -48 -15 -68 -63 -86 -62 -24 -117 49 -69 92 18 16 73 35 110
36 20 1 22 -4 22 -42z"/>
<path d="M4261 7816 c-50 -13 -67 -36 -27 -36 l26 0 0 -155 0 -155 -30 0 c-20
0 -30 -5 -30 -15 0 -12 16 -15 86 -15 64 0 85 3 82 13 -3 6 -14 13 -26 15 -21
3 -22 7 -22 138 l0 135 38 16 c50 22 97 21 122 -2 18 -16 20 -30 20 -152 0
-126 -1 -133 -20 -133 -11 0 -20 -7 -20 -15 0 -12 16 -15 80 -15 63 0 80 3 80
14 0 9 -12 16 -27 18 l-28 3 -5 147 c-5 144 -6 148 -32 175 -38 38 -109 38
-167 0 l-41 -27 0 30 c0 16 -3 30 -7 29 -5 -1 -28 -6 -52 -13z"/>
<path d="M4791 7820 c-79 -19 -131 -94 -131 -190 0 -135 106 -224 228 -191 77
20 113 59 132 144 23 104 -33 210 -125 236 -45 12 -56 12 -104 1z m99 -45 c43
-22 60 -63 60 -145 0 -104 -36 -160 -103 -160 -71 0 -117 64 -117 162 0 120
75 187 160 143z"/>
<path d="M6177 7816 c-78 -28 -120 -95 -121 -191 -1 -116 66 -189 174 -190 34
0 69 7 93 19 38 19 45 44 11 38 -85 -14 -125 -13 -149 2 -29 19 -50 57 -59
109 l-7 37 131 0 130 0 0 43 c0 47 -26 98 -62 120 -35 23 -98 28 -141 13z
m102 -43 c12 -10 24 -35 28 -55 l6 -38 -92 0 c-99 0 -101 1 -75 55 25 53 91
72 133 38z"/>
<path d="M6471 7816 c-50 -13 -67 -36 -27 -36 l26 0 0 -154 0 -155 -27 -3
c-14 -2 -28 -9 -31 -15 -3 -10 20 -13 92 -13 79 0 96 3 96 15 0 10 -11 15 -35
15 l-35 0 0 124 0 125 36 27 c31 24 39 26 65 17 25 -10 31 -9 44 10 21 30 19
34 -17 46 -36 13 -66 -1 -105 -48 l-23 -26 0 37 c0 20 -3 39 -7 41 -5 2 -28
-1 -52 -7z"/>
<path d="M6827 7816 c-78 -29 -127 -102 -127 -191 0 -151 139 -238 271 -169
32 16 42 52 12 39 -10 -4 -40 -10 -67 -13 -85 -9 -128 27 -142 118 l-7 40 132
0 131 0 0 33 c-1 108 -103 180 -203 143z m93 -36 c17 -9 40 -58 40 -86 0 -11
-22 -14 -94 -14 l-93 0 5 25 c7 41 55 85 92 85 17 0 40 -4 50 -10z"/>
<path d="M7175 7824 c-64 -15 -95 -55 -95 -123 0 -48 34 -81 104 -101 26 -7
55 -24 66 -37 52 -67 -64 -130 -125 -68 -14 13 -25 31 -25 40 0 8 -7 15 -16
15 -13 0 -15 -7 -10 -31 3 -17 6 -39 6 -49 0 -21 46 -40 94 -40 54 1 115 35
131 74 33 78 7 125 -83 151 -31 9 -65 24 -74 32 -40 36 -5 103 52 103 32 0 70
-30 70 -55 0 -23 17 -18 24 8 10 38 7 56 -12 66 -23 12 -82 20 -107 15z"/>
<path d="M5630 7805 c0 -8 7 -15 16 -15 16 0 47 -63 124 -253 31 -77 48 -106
58 -102 7 3 19 5 26 5 6 0 41 77 76 171 45 119 70 173 83 177 9 2 17 11 17 18
0 10 -16 14 -60 14 -47 0 -60 -3 -60 -15 0 -9 10 -15 26 -15 14 0 24 -3 22 -8
-1 -4 -25 -67 -52 -140 -27 -72 -52 -132 -55 -132 -9 0 -119 268 -113 275 3 3
16 5 29 5 14 0 23 6 23 15 0 12 -16 15 -80 15 -64 0 -80 -3 -80 -15z"/>
<path d="M5734 6271 c-3 -3 -9 -6 -12 -7 -17 -2 -61 -24 -67 -33 -3 -6 -16
-11 -29 -11 -33 0 -130 -92 -161 -153 -25 -47 -29 -44 -10 8 5 15 1 14 -19 -8
-26 -28 -36 -77 -16 -77 6 0 10 5 10 12 0 6 2 9 5 6 3 -3 -4 -22 -16 -42 -11
-20 -19 -42 -16 -50 3 -8 3 -17 0 -20 -10 -10 -13 -86 -4 -86 5 0 23 11 39 25
17 14 35 25 41 25 6 0 11 5 11 10 0 6 12 16 28 23 15 6 49 27 76 46 64 46 120
59 203 49 48 -5 82 -17 123 -41 31 -19 67 -37 81 -40 13 -4 45 -25 72 -48 l47
-41 -30 -34 c-24 -27 -30 -44 -30 -79 0 -24 -5 -47 -10 -50 -6 -4 -9 -14 -8
-23 2 -11 -3 -16 -12 -15 -10 2 -22 -13 -33 -38 -9 -22 -22 -37 -27 -34 -5 3
-24 26 -40 51 -32 46 -65 64 -36 19 9 -14 12 -25 6 -25 -6 0 -19 13 -28 30
-19 34 -42 38 -67 13 -15 -14 -23 -15 -58 -6 -50 14 -57 10 -57 -25 0 -21 5
-28 21 -29 25 -2 44 -18 44 -36 0 -7 18 -14 40 -17 41 -6 65 -16 65 -28 0 -4
-38 -8 -85 -9 -87 -3 -107 7 -60 29 14 6 25 15 25 19 0 8 -61 -4 -80 -16 -15
-10 -32 16 -20 30 5 6 12 31 16 55 l6 45 -30 -34 c-50 -57 -57 -76 -46 -130 6
-27 7 -57 3 -67 -7 -18 -8 -18 -8 -1 -1 10 -8 20 -16 23 -8 4 -15 18 -15 33
-1 31 -21 61 -43 61 -8 0 -17 7 -21 15 -10 28 -29 17 -23 -15 4 -16 2 -32 -3
-35 -18 -11 -10 -27 9 -22 23 6 18 -16 -10 -49 -16 -17 -17 -24 -6 -47 6 -14
19 -28 28 -30 9 -3 20 -19 24 -36 4 -18 29 -57 56 -88 50 -58 56 -73 20 -54
-22 12 -103 115 -114 145 -6 15 -10 16 -22 6 -9 -7 -13 -21 -10 -30 3 -10 0
-29 -6 -44 -19 -40 2 -91 72 -179 47 -59 66 -76 78 -70 36 16 90 8 119 -20 35
-34 86 -45 110 -25 9 9 37 18 62 21 25 2 54 8 64 13 14 5 17 4 12 -4 -10 -17
-3 -15 58 14 52 24 102 63 62 48 -23 -9 -20 -2 19 47 19 24 35 51 35 60 0 9
14 28 30 42 33 30 42 83 15 93 -28 11 -15 22 33 27 53 5 163 34 176 47 11 11
-7 65 -60 177 -24 50 -44 96 -44 101 0 4 -19 31 -43 58 -24 28 -56 76 -72 107
-29 55 -29 55 -17 139 13 91 5 141 -29 190 -22 30 -153 110 -219 133 -42 15
-143 19 -156 6z m-60 -821 c17 -6 26 -6 26 0 0 6 31 10 70 10 40 0 70 -4 70
-10 0 -5 13 -10 29 -10 19 0 30 -6 33 -18 4 -15 -3 -18 -56 -20 -76 -4 -119
-11 -129 -22 -14 -13 2 -50 21 -51 70 -2 104 -7 113 -16 15 -15 2 -51 -19 -55
-26 -6 -84 9 -93 24 -7 10 -9 10 -9 1 0 -17 -25 -16 -42 1 -20 19 -58 30 -58
16 0 -16 -41 -2 -65 22 l-20 20 47 -5 c33 -3 53 0 65 10 10 8 12 11 4 7 -9 -4
-12 -2 -9 7 3 8 -1 20 -9 27 -15 15 -18 72 -4 72 5 0 21 -4 35 -10z"/>
<path d="M3537 6149 c-51 -12 -116 -46 -150 -78 -61 -56 -93 -163 -64 -216
l14 -28 12 35 c6 20 21 44 33 54 20 19 21 19 13 -6 -5 -14 -12 -43 -16 -65 -4
-26 -7 -31 -8 -15 -1 20 -3 22 -11 10 -16 -25 -11 -103 8 -140 26 -47 46 -52
27 -6 -8 19 -15 38 -15 42 0 8 30 -32 46 -61 6 -11 29 -26 50 -33 l39 -12 -43
4 c-41 4 -44 3 -38 -17 3 -12 6 -28 6 -35 0 -7 4 -11 9 -8 5 3 7 16 3 28 -4
18 -2 20 19 15 73 -20 95 -19 125 6 16 13 34 22 40 20 7 -2 14 8 18 22 9 35
68 36 91 1 19 -29 40 -36 124 -42 47 -3 70 0 87 11 13 8 26 15 29 15 3 0 5
-26 3 -57 -2 -42 -7 -57 -16 -55 -9 2 -12 -7 -10 -29 2 -19 -2 -34 -9 -36 -9
-3 -13 6 -13 25 0 34 -27 62 -59 62 -13 0 -20 4 -16 11 4 6 1 10 -6 8 -27 -3
-39 1 -60 22 -19 19 -22 19 -45 4 -13 -8 -24 -21 -24 -28 0 -8 -11 -24 -25
-37 -30 -28 -31 -37 -5 -45 11 -3 20 -13 20 -21 0 -12 11 -15 53 -12 41 2 52
0 52 -12 0 -10 -12 -16 -34 -18 -24 -3 -30 -6 -21 -12 9 -6 2 -11 -24 -15 -24
-5 -42 -3 -49 4 -6 6 -21 11 -34 11 -14 0 -23 6 -23 15 0 16 -25 21 -34 7 -17
-29 78 -92 139 -92 19 0 35 -4 35 -10 0 -5 -4 -10 -10 -10 -5 0 -10 -7 -10
-15 0 -8 5 -15 11 -15 5 0 7 -5 3 -11 -3 -6 -9 -7 -13 -3 -12 17 -42 13 -39
-5 2 -9 12 -16 23 -16 16 0 20 -7 21 -35 2 -37 -23 -70 -51 -70 -37 0 -125 62
-125 87 0 8 -18 31 -40 52 -23 22 -40 47 -40 60 0 12 -12 45 -26 74 -26 50
-27 51 -37 29 -8 -17 -7 -32 2 -55 15 -40 21 -116 8 -124 -5 -3 -6 -18 -3 -34
3 -15 1 -31 -4 -34 -6 -3 -10 -15 -10 -26 0 -10 -4 -19 -10 -19 -20 0 -9 -31
31 -90 43 -63 137 -152 154 -147 5 2 16 -2 23 -10 19 -19 75 -16 124 6 24 11
60 23 80 26 55 9 131 73 146 123 7 23 25 51 40 62 50 40 65 97 43 166 -5 16
-12 45 -15 64 l-6 34 37 -36 c51 -49 89 -63 118 -44 21 14 55 72 55 94 0 23
-73 102 -128 136 l-60 37 6 66 c4 53 2 64 -8 58 -10 -6 -12 -4 -6 11 8 20 26
119 26 142 0 7 -4 10 -10 7 -5 -3 -10 1 -10 9 0 9 -9 25 -20 36 -21 21 -27 35
-10 25 33 -20 -13 56 -58 97 -102 92 -302 141 -445 107z m-33 -189 c6 0 12
-12 11 -27 0 -19 7 -31 21 -37 11 -5 28 -22 37 -38 19 -33 44 -45 60 -29 8 8
7 11 -5 11 -17 0 -51 44 -41 54 4 3 15 -1 25 -11 10 -9 18 -13 18 -10 0 3 13
2 30 -3 19 -5 32 -5 36 2 4 6 27 8 54 6 42 -4 47 -3 42 14 -3 14 1 18 24 18
16 0 40 9 53 19 14 10 31 17 38 14 7 -3 13 2 13 10 0 14 5 14 33 5 44 -15 57
-29 67 -74 10 -45 -5 -113 -28 -122 -8 -3 -22 4 -31 16 -24 32 -72 39 -95 13
-28 -31 -51 -26 -86 19 -33 42 -63 51 -99 28 -15 -9 -17 -14 -6 -24 10 -11 6
-21 -25 -54 l-38 -41 -78 7 c-94 8 -107 14 -124 53 -21 51 -5 118 38 161 21
20 39 33 40 28 2 -4 9 -8 16 -8z"/>
<path d="M4954 4823 c1 -32 -2 -66 -7 -77 -6 -12 -5 -22 2 -29 6 -6 11 -16 11
-21 0 -6 -5 -4 -10 4 -7 10 -10 -12 -10 -71 0 -48 -2 -99 -4 -115 -2 -16 -1
-22 1 -14 3 8 8 19 13 23 9 10 0 -44 -10 -58 -13 -17 -21 -258 -9 -275 8 -11
9 -9 3 10 -6 22 -5 23 10 8 13 -14 14 -22 5 -45 -10 -26 -12 -27 -20 -8 -9 20
-4 -68 6 -110 3 -11 -2 -6 -9 10 -14 29 -15 29 -13 -32 1 -58 10 -80 19 -51 3
7 5 -10 6 -37 l1 -50 -14 30 -14 30 0 -35 c1 -19 -2 -66 -6 -104 -5 -52 -4
-71 7 -77 7 -5 8 -9 3 -9 -6 0 -10 -18 -10 -39 0 -22 -3 -37 -7 -35 -5 3 -8
-2 -8 -11 0 -9 5 -13 10 -10 6 3 10 -1 10 -9 0 -9 -4 -16 -10 -16 -16 0 -12
-22 8 -36 16 -13 16 -14 0 -8 -15 5 -18 0 -18 -24 0 -16 7 -35 15 -42 8 -7 15
-18 14 -24 0 -7 -2 -6 -6 2 -2 6 -9 12 -15 12 -6 0 -7 -7 -4 -16 4 -9 2 -22
-3 -28 -4 -6 -11 -73 -13 -148 -5 -136 -5 -138 16 -138 11 0 32 -3 46 -6 21
-5 22 -4 10 6 -13 10 -12 11 5 5 45 -16 94 -24 178 -27 81 -3 87 -2 88 17 1
11 2 25 4 30 1 6 3 15 4 20 2 6 2 39 1 75 -3 116 13 592 19 582 3 -6 3 -93 0
-194 -4 -100 -4 -185 0 -188 9 -7 8 -150 -2 -150 -4 0 -5 -4 -2 -10 13 -21 27
-9 23 19 -2 17 0 27 5 24 8 -4 7 -27 -5 -100 -1 -7 -5 -10 -9 -7 -4 2 -7 -5
-6 -16 1 -11 5 -20 10 -20 4 0 5 -4 2 -10 -3 -5 -1 -10 4 -10 6 0 11 -7 11
-15 0 -9 -6 -12 -17 -8 -11 4 -14 3 -9 -5 4 -7 1 -12 -9 -12 -13 0 -14 -2 -3
-14 11 -12 14 -12 21 0 5 8 24 14 48 14 25 0 38 -4 34 -10 -4 -6 -21 -8 -42
-4 -26 5 -34 4 -29 -5 4 -6 30 -11 57 -11 37 0 51 4 56 17 4 10 1 19 -6 21 -9
3 -9 7 1 20 10 12 10 16 1 19 -7 3 -13 12 -13 21 1 15 3 14 15 -2 8 -11 13
-28 9 -38 -3 -10 -1 -18 4 -18 6 0 9 -8 8 -17 -3 -17 10 -32 26 -33 3 0 14 24
23 53 31 100 50 107 30 12 -7 -33 -12 -61 -11 -62 1 -1 55 -4 121 -7 66 -4
148 -9 183 -12 65 -6 78 4 50 36 -11 12 -10 12 5 1 16 -12 17 -9 17 38 0 32 4
50 10 46 6 -4 10 5 10 19 0 14 5 26 11 26 7 0 9 -9 5 -24 -3 -12 -8 -41 -12
-62 -3 -21 -10 -43 -15 -48 -22 -23 -8 -36 36 -36 l46 0 -5 38 -6 37 10 -33
c6 -18 15 -30 20 -27 6 4 17 -1 26 -9 19 -20 200 -24 188 -4 -4 7 -3 8 4 4 20
-12 53 -16 172 -21 63 -3 125 -8 138 -11 20 -6 22 -3 24 32 1 37 1 38 5 7 2
-18 10 -33 16 -34 7 0 20 -2 30 -4 12 -2 17 1 14 9 -3 7 1 13 9 13 7 0 11 -4
9 -8 -3 -4 2 -9 10 -13 18 -6 19 -1 5 24 -8 16 -7 18 4 14 13 -5 14 4 10 57
-3 35 -7 66 -10 71 -3 4 0 8 5 8 6 0 11 5 11 11 0 5 -4 7 -10 4 -5 -3 -10 0
-10 9 0 8 6 16 13 19 9 3 8 8 -3 22 -14 17 -13 18 3 12 15 -6 17 4 19 111 3
192 5 252 12 355 4 61 3 97 -3 97 -6 0 -6 12 0 32 11 40 11 60 -1 33 -6 -15
-9 -8 -10 30 -1 36 -4 44 -9 30 -7 -17 -9 -16 -16 13 -8 38 0 52 18 32 9 -10
9 -11 0 -6 -7 4 -13 3 -13 -2 0 -6 7 -12 15 -16 11 -4 15 1 15 17 0 18 2 19
10 7 8 -11 10 -3 9 30 -1 25 2 102 5 173 5 80 3 127 -3 127 -5 0 -12 -6 -14
-12 -3 -7 -5 3 -5 22 0 19 2 27 5 18 2 -10 8 -18 13 -18 10 0 23 50 15 58 -3
3 -6 -1 -6 -9 -1 -8 -5 11 -8 41 -4 30 -4 71 0 90 5 29 7 22 9 -35 l3 -70 7
95 c11 136 11 257 1 242 -8 -13 -31 -12 -108 4 -12 2 -23 -1 -25 -9 -2 -8 -13
-10 -33 -6 l-30 7 30 2 c28 2 27 3 -10 11 -63 13 -209 11 -223 -3 -9 -9 -12
-8 -12 8 0 16 -2 17 -10 4 -9 -13 -11 -13 -20 0 -8 12 -10 9 -10 -12 0 -29 14
-37 24 -15 4 6 4 2 2 -10 -5 -28 2 -29 21 -5 13 15 14 15 10 0 -4 -11 -1 -15
11 -13 9 2 35 4 57 5 l40 2 -32 9 c-38 11 -53 29 -24 29 12 0 21 -4 21 -10 0
-5 8 -10 18 -10 14 0 15 2 2 10 -8 5 -10 10 -5 10 6 0 17 -5 25 -10 12 -8 12
-10 1 -10 -8 0 -12 -3 -8 -6 3 -4 21 -1 38 5 19 7 36 8 42 2 10 -10 -10 -16
-120 -31 -60 -9 -80 -16 -77 -25 3 -8 11 -16 18 -18 9 -4 12 -24 10 -64 -3
-66 9 -102 20 -59 3 14 13 26 22 26 12 0 12 2 2 14 -7 8 -17 12 -21 9 -5 -3
-3 4 4 15 7 12 15 19 17 17 3 -2 12 0 21 4 13 7 16 4 16 -14 0 -15 -3 -20 -10
-14 -5 5 -16 9 -25 8 -11 0 -9 -4 8 -16 28 -19 29 -43 2 -38 -11 2 -20 0 -20
-6 0 -5 5 -9 10 -9 6 0 10 -9 10 -20 0 -11 6 -20 13 -20 7 0 12 -15 13 -38 1
-20 -1 -29 -3 -19 -3 9 -9 17 -14 17 -6 0 -8 -4 -5 -9 4 -5 -2 -8 -11 -6 -10
2 -21 4 -25 4 -4 1 -8 11 -10 24 -2 16 -10 4 -26 -41 -13 -34 -27 -60 -32 -57
-4 3 -11 -1 -13 -7 -3 -7 -6 -1 -6 14 -1 15 6 31 15 36 10 6 14 14 9 22 -6 9
-9 9 -16 -1 -6 -9 -9 0 -9 27 0 44 -42 184 -66 222 -8 12 -22 34 -31 48 l-17
27 24 -14 c13 -8 40 -28 59 -46 32 -29 33 -32 18 -48 -22 -21 -21 -25 3 -20
54 10 53 36 -2 94 -24 24 -35 41 -25 38 9 -4 17 -2 17 4 0 6 -9 9 -20 6 -11
-3 -36 -1 -55 3 -33 8 -35 7 -30 -13 5 -22 5 -22 -11 1 -14 19 -26 22 -80 22
-36 0 -64 -4 -64 -10 0 -5 4 -10 9 -10 5 0 13 -9 16 -21 4 -11 13 -18 20 -15
17 6 25 -59 11 -95 l-10 -27 -20 38 c-12 20 -39 52 -61 71 -22 19 -34 26 -26
16 12 -15 12 -17 -1 -12 -8 3 -19 18 -26 33 l-11 27 2 -34 c1 -20 -3 -36 -10
-38 -8 -3 -13 4 -13 16 0 11 -4 23 -10 26 -5 3 -10 15 -10 26 0 15 -7 19 -31
19 -24 0 -30 -3 -25 -16 3 -9 6 -20 6 -25 0 -14 28 -11 33 4 4 7 6 6 6 -4 1
-9 -6 -20 -14 -23 -12 -4 -14 -10 -5 -25 13 -25 13 -51 0 -51 -6 0 -13 14 -17
30 -3 17 -14 37 -25 44 -13 9 -18 23 -16 42 l3 28 -108 4 c-95 3 -111 2 -129
-15 -11 -10 -22 -17 -24 -15 -5 3 -5 2 3 -26 3 -12 18 -29 34 -38 16 -8 33
-23 39 -34 15 -29 -5 -26 -34 5 -17 18 -25 22 -34 13 -17 -17 -15 -36 6 -47
13 -7 23 -6 30 1 16 16 27 2 40 -50 13 -57 7 -78 -45 -138 -23 -28 -43 -61
-43 -73 0 -44 -69 -218 -77 -194 -2 6 4 29 15 50 10 21 26 66 36 100 22 83 51
145 83 183 26 31 26 32 6 51 -20 20 -20 20 -46 -18 -14 -21 -40 -81 -57 -133
-39 -119 -75 -196 -95 -204 -13 -5 -15 -1 -9 17 3 12 12 34 20 48 7 14 10 36
7 48 -4 14 -1 21 6 19 7 -2 23 24 36 59 23 60 23 62 4 78 -21 20 -16 26 -56
-85 -25 -70 -64 -150 -74 -150 -20 0 -7 41 56 175 18 39 48 106 66 150 18 44
46 94 62 111 19 21 25 34 17 39 -16 10 -60 -22 -60 -45 0 -11 -4 -20 -10 -20
-13 0 -49 -73 -53 -108 -2 -16 -15 -44 -29 -63 -44 -59 -89 -165 -82 -194 5
-20 3 -25 -13 -25 -29 0 -43 -20 -43 -62 l0 -39 54 2 c63 2 76 -4 76 -37 0
-13 6 -24 13 -24 8 0 25 -10 38 -21 l24 -22 -35 5 c-19 3 -55 2 -80 -2 l-45
-7 39 -2 c35 -1 38 -3 32 -23 -3 -13 -6 -30 -6 -39 0 -16 -29 -32 -82 -43 -16
-4 -28 -13 -28 -22 0 -12 -7 -15 -29 -12 l-30 4 -6 -65 c-7 -74 -24 -141 -37
-141 -4 0 -8 -9 -8 -19 0 -11 -4 -23 -10 -26 -13 -8 -13 38 -1 50 13 13 21 62
14 81 -3 9 -13 12 -24 9 -14 -5 -19 -1 -19 12 0 12 3 14 8 6 5 -8 12 -9 22 -2
12 7 11 10 -7 15 -25 7 -30 19 -12 30 8 4 7 9 -2 15 -9 6 -10 9 -2 9 6 0 21
-12 32 -26 l21 -27 0 46 c0 61 8 81 26 66 12 -10 13 -3 7 37 -3 27 -10 58 -14
69 -7 18 -8 18 -8 -4 -1 -20 -3 -21 -16 -11 -22 18 -19 27 20 67 20 21 35 46
35 60 0 14 4 21 10 18 6 -3 10 -3 11 2 0 4 2 21 4 38 l4 29 -19 -29 -20 -30 6
50 c6 45 34 108 34 77 0 -7 5 -10 11 -6 8 4 9 0 4 -15 -3 -11 -2 -21 3 -21 5
0 12 10 16 23 8 32 7 39 -4 32 -13 -8 -13 -2 2 30 11 24 13 25 19 8 5 -14 16
-3 53 55 25 40 44 78 40 83 -3 5 -1 15 4 22 5 7 12 29 16 50 4 21 13 40 21 43
7 3 16 22 20 42 5 26 9 32 15 22 7 -11 12 -7 23 18 7 18 16 30 20 27 4 -3 5
-2 2 2 -3 3 4 12 15 20 35 24 23 34 -32 28 -42 -5 -50 -4 -38 5 12 10 12 11
-5 4 -36 -13 -105 -17 -105 -5 0 7 -41 11 -126 11 -81 0 -123 -4 -119 -10 3
-5 1 -10 -4 -10 -6 0 -11 4 -11 9 0 5 -7 12 -16 15 -14 5 -15 4 -4 -9 14 -17
14 -17 -18 -20 -17 -2 -20 1 -13 8 15 15 14 27 -4 27 -11 0 -13 -13 -11 -57z
m1256 -256 c23 -12 25 -18 23 -72 -2 -33 -3 -74 -3 -90 -1 -43 -13 -57 -55
-62 -32 -3 -36 -1 -30 16 3 11 1 22 -5 26 -20 12 -10 26 11 14 15 -8 19 -8 15
0 -4 6 -2 11 4 11 6 0 8 5 5 10 -10 17 5 50 23 51 13 0 12 2 -5 9 -13 5 -24
22 -29 42 -4 18 -9 27 -11 21 -6 -18 -23 -16 -23 2 0 9 9 15 21 15 20 0 21 4
16 43 l-6 42 12 -33 c7 -18 24 -38 37 -45z m-1077 50 c-4 -6 0 -8 10 -4 13 5
17 1 17 -14 0 -16 4 -19 20 -14 25 8 27 -22 5 -66 -12 -21 -13 -34 -5 -48 15
-29 12 -39 -5 -17 -8 11 -15 28 -15 39 0 10 -5 15 -11 12 -7 -5 -8 -25 -4 -55
4 -29 3 -50 -4 -54 -6 -4 -9 6 -9 24 1 17 -2 33 -5 37 -4 3 -7 -5 -7 -20 0
-79 -48 3 -57 97 -5 58 -4 62 22 77 30 18 57 21 48 6z m1246 -159 c-3 -29 2
-49 11 -43 6 3 8 -15 7 -47 -2 -35 2 -58 12 -68 12 -13 13 -10 7 21 -5 30 -3
35 14 36 11 1 19 -1 18 -5 -1 -4 2 -15 7 -25 5 -13 1 -24 -15 -39 -15 -14 -18
-24 -11 -31 7 -7 14 -7 23 0 7 6 30 13 50 17 25 4 35 11 32 20 -3 7 1 13 9 13
9 0 12 -7 10 -17 -3 -13 7 -22 41 -36 44 -18 57 -36 36 -49 -14 -9 -12 -52 3
-58 7 -4 6 -6 -5 -6 -13 -1 -18 -15 -23 -65 -4 -36 -4 -70 0 -77 5 -6 -6 -4
-24 7 -17 10 -31 24 -31 30 0 12 -14 20 -62 34 -33 10 -35 5 -24 -87 2 -18 0
-31 -3 -28 -4 2 -13 0 -21 -5 -12 -8 -11 -12 7 -29 11 -11 23 -18 25 -15 8 8
9 -211 1 -233 -5 -14 -8 11 -8 70 -1 116 -11 171 -31 163 -8 -3 -14 1 -14 9 0
8 -5 15 -11 15 -5 0 -8 -3 -5 -8 4 -6 -35 -12 -98 -13 -14 0 -16 -3 -8 -11 6
-6 18 -7 29 -3 18 8 41 8 81 -1 19 -4 22 -10 21 -47 -1 -23 -4 -32 -6 -19 -2
12 -9 22 -15 22 -6 0 -8 10 -5 21 6 21 3 21 -54 15 -56 -7 -61 -5 -66 13 -6
23 -32 27 -53 9 -12 -11 -12 -10 -1 4 11 15 11 19 -3 24 -10 4 -15 12 -12 19
3 8 -1 15 -7 18 -9 3 -13 -19 -15 -77 -2 -44 -7 -111 -11 -147 -7 -64 -6 -66
16 -63 30 3 43 12 43 31 0 15 -2 15 -18 0 -17 -16 -18 -14 -8 51 6 37 12 57
14 44 2 -12 8 -20 13 -17 5 4 9 -7 9 -24 0 -16 5 -33 12 -37 7 -5 9 -2 5 9 -3
9 -1 18 6 21 9 3 9 7 -1 14 -11 7 -11 10 2 15 12 5 16 0 15 -21 -2 -40 -16
-92 -18 -67 -2 19 -3 19 -13 -2 -6 -13 -17 -23 -25 -23 -8 0 -13 -6 -10 -12 2
-7 9 -13 15 -13 5 0 14 -4 19 -9 4 -5 3 -6 -4 -3 -15 9 -20 -7 -15 -49 3 -20
10 -34 18 -34 10 0 14 -13 14 -46 0 -37 3 -45 15 -40 9 3 15 0 15 -8 0 -9 -7
-12 -20 -9 -11 3 -20 9 -20 14 0 5 -5 9 -11 9 -5 0 -7 -5 -3 -12 12 -19 12
-107 0 -117 -7 -6 -12 0 -13 20 -1 16 -6 37 -11 46 -7 11 -9 4 -7 -26 1 -23
-1 -39 -5 -34 -10 12 -50 157 -50 182 0 12 -6 21 -15 21 -16 0 -15 -11 10
-124 13 -57 13 -72 3 -82 -11 -11 -14 -4 -16 39 -4 75 -10 91 -29 75 -12 -10
-14 -25 -9 -74 4 -39 3 -65 -4 -69 -5 -3 -10 0 -11 7 -1 29 -19 185 -24 218
-5 31 -5 33 7 15 7 -11 14 -31 16 -45 4 -29 21 -52 23 -30 2 33 -3 76 -11 84
-5 4 -5 40 -2 80 8 81 8 419 0 486 -3 25 -9 54 -14 65 -7 17 -6 18 8 7 9 -7
19 -31 23 -53 7 -43 8 -43 34 -30 28 15 36 0 36 -67 0 -55 3 -66 25 -83 14
-11 34 -24 45 -28 22 -9 85 -3 85 9 0 4 -22 18 -49 31 -52 24 -61 41 -61 115
0 25 4 34 17 34 15 0 14 2 -3 14 -19 14 -19 15 1 21 61 20 72 24 98 29 18 5
27 13 27 27 0 25 -19 33 -52 20 -32 -12 -62 4 -37 19 14 8 16 21 12 74 -6 71
2 111 17 86 5 -8 5 -21 -1 -31 -14 -27 11 -115 32 -111 11 2 15 10 11 27 -6
31 5 32 18 3 7 -18 8 -13 4 17 -7 41 -23 72 -25 45 0 -10 -4 -7 -9 5 -12 27
-12 57 -1 50 6 -3 15 4 21 15 12 23 22 26 19 8z m-612 -121 c4 -6 9 -19 10
-28 1 -9 16 -30 32 -48 28 -30 29 -35 30 -129 0 -53 6 -137 13 -185 9 -67 9
-95 0 -119 -10 -27 -9 -31 8 -35 19 -5 19 -6 0 -30 -11 -14 -17 -29 -14 -34 9
-15 -6 -49 -22 -49 -11 0 -13 9 -8 40 4 25 2 45 -5 54 -9 11 -9 15 1 18 11 4
29 124 19 133 -7 7 -15 137 -16 233 0 45 -3 82 -7 82 -16 0 -48 35 -48 51 0
10 -12 27 -26 38 -29 23 -25 47 6 31 10 -6 22 -16 27 -23z m91 -32 c21 -30 36
-43 47 -39 13 5 15 -23 17 -232 3 -300 3 -339 -10 -554 -13 -204 -10 -180 -22
-180 -13 0 -7 293 9 423 7 58 7 106 1 139 -6 28 -10 123 -10 212 0 88 -4 166
-8 172 -4 6 -15 13 -24 17 -9 3 -18 18 -20 34 -2 21 -8 28 -24 27 -14 0 -20 4
-17 13 9 24 29 14 61 -32z m-114 -45 c9 0 15 -3 12 -8 -2 -4 0 -93 5 -199 6
-128 6 -223 -1 -289 -6 -55 -13 -164 -16 -244 -3 -80 -10 -153 -15 -162 -6
-12 -6 -18 1 -18 5 0 10 -4 10 -10 0 -23 -28 -8 -31 18 -5 32 9 336 18 407 14
111 3 463 -16 494 -11 17 -39 3 -43 -22 -2 -12 3 -71 10 -132 13 -111 8 -235
-9 -235 -9 0 -13 55 -9 115 1 16 -4 79 -10 140 -13 112 -7 212 10 170 8 -18 9
-18 9 4 l1 25 28 -27 c15 -15 36 -27 46 -27z m-136 -145 c0 -85 3 -159 6 -164
3 -5 1 -32 -5 -59 -5 -28 -12 -81 -14 -119 -2 -37 -9 -124 -15 -193 -6 -69
-10 -146 -8 -173 3 -50 -5 -60 -22 -27 -15 27 -2 281 17 335 9 26 11 58 7 97
-4 38 -3 63 5 72 7 8 11 40 10 72 -6 186 0 314 15 314 2 0 3 -70 4 -155z m822
-525 l7 55 1 -72 c1 -40 -1 -73 -5 -73 -5 0 -6 -40 -5 -90 3 -61 0 -90 -7 -90
-7 0 -11 -29 -11 -81 0 -68 2 -80 14 -70 11 10 13 4 8 -35 -4 -34 -2 -45 7
-40 8 5 11 59 8 195 -2 103 -1 193 1 199 12 38 17 -5 15 -140 -5 -266 -5 -267
-34 -265 -16 1 -19 6 -14 24 3 13 1 32 -5 42 -6 13 -7 102 -2 258 4 131 9 213
11 183 l5 -55 6 55z m-972 -27 c-1 -16 2 -37 7 -48 l8 -20 -16 20 c-16 20 -16
20 -17 0 0 -12 -5 -26 -11 -32 -14 -14 -1 -56 15 -50 9 4 10 -11 4 -62 -14
-124 -17 -132 -41 -129 -29 4 -47 22 -46 45 0 16 1 16 9 -2 7 -17 9 -17 9 -2
1 9 6 17 12 17 5 0 7 -5 3 -12 -5 -7 -3 -8 7 -3 11 7 12 6 2 -7 -7 -8 -10 -18
-6 -21 13 -14 23 -6 23 18 0 14 -5 25 -11 25 -8 0 -8 4 1 15 6 8 9 19 5 24 -3
6 -1 19 4 30 9 17 8 18 -12 13 -20 -5 -20 -4 -8 11 7 9 10 17 5 17 -5 0 -3 4
4 9 10 6 10 10 -3 21 -12 10 -15 10 -15 -1 0 -27 -17 -41 -39 -34 -12 3 -19
11 -16 16 4 5 1 9 -6 9 -7 0 -9 3 -6 7 4 3 -1 15 -10 26 -17 19 -17 20 4 8 12
-6 32 -9 45 -7 13 3 28 5 34 5 7 1 15 21 19 46 3 25 10 43 15 40 4 -3 6 4 3
15 -4 14 0 20 10 20 11 0 16 -9 15 -27z"/>
<path d="M6142 4108 c-15 -15 -17 -298 -2 -298 14 0 13 -27 -2 -32 -6 -2 -13
-30 -16 -61 -4 -48 -2 -57 12 -57 20 0 23 17 32 180 12 215 5 297 -24 268z"/>
<path d="M4266 4798 c-3 -18 -8 -105 -11 -193 -7 -211 -15 -283 -29 -288 -7
-3 -33 -3 -59 0 -40 5 -47 9 -47 27 0 13 14 30 36 44 35 23 36 26 30 65 -4 23
-9 98 -12 166 -2 69 -6 126 -8 128 -2 3 -7 -18 -11 -45 -6 -46 -11 -63 -44
-147 -11 -29 -14 -30 -66 -28 -30 0 -68 8 -86 17 -27 14 -33 14 -46 1 -18 -19
-92 -20 -99 -1 -3 7 -6 24 -8 37 -5 43 -29 114 -33 102 -3 -7 1 -29 7 -48 6
-19 9 -38 7 -43 -3 -4 5 -70 19 -147 13 -77 24 -144 24 -149 0 -4 12 -1 26 9
21 13 36 15 77 9 68 -11 89 -11 108 -2 9 4 20 3 25 -2 9 -9 104 -15 188 -12
41 2 47 4 36 17 -15 18 -4 109 16 126 23 19 16 33 -8 17 -19 -13 -24 -28 -29
-84 -4 -38 -5 -15 -2 51 3 66 6 179 7 250 1 72 5 136 9 143 5 6 4 12 -2 12 -6
0 -12 -15 -15 -32z"/>
<path d="M4307 4805 c10 -37 10 -166 0 -220 l-6 -40 16 35 c8 20 16 65 17 102
0 38 5 67 10 65 5 -2 18 -25 29 -52 21 -53 29 -178 14 -225 -6 -21 -5 -20 9 5
9 17 23 38 31 47 28 31 27 83 -2 145 -15 32 -38 69 -51 83 -13 14 -35 39 -49
55 l-25 30 7 -30z"/>
<path d="M8500 4580 l0 -90 -95 0 c-57 0 -95 -4 -95 -10 0 -6 28 -10 65 -10
l65 0 0 -30 c0 -25 -4 -30 -25 -30 -14 0 -25 -4 -25 -10 0 -5 11 -10 25 -10
14 0 25 5 25 10 0 6 14 10 30 10 31 0 41 -16 15 -26 -24 -9 -17 -24 10 -24 20
0 25 5 25 25 0 16 6 25 15 25 9 0 15 -9 15 -25 0 -20 5 -25 25 -25 16 0 25 -6
25 -15 0 -9 -9 -15 -25 -15 -14 0 -25 -4 -25 -10 0 -5 5 -10 10 -10 6 0 10 -7
10 -15 0 -8 7 -15 15 -15 8 0 15 7 15 15 0 9 9 15 25 15 14 0 25 5 25 10 0 6
-4 10 -10 10 -5 0 -10 14 -10 30 0 17 5 30 10 30 6 0 10 -7 10 -15 0 -8 7 -15
15 -15 8 0 15 -7 15 -15 0 -8 5 -15 10 -15 6 0 10 18 10 40 0 22 -4 40 -10 40
-5 0 -10 7 -10 15 0 20 -17 19 -28 -2 -9 -15 -12 -14 -35 10 -25 27 -47 35
-47 17 0 -5 -22 -10 -50 -10 -38 0 -50 4 -50 15 0 11 11 15 36 15 35 0 64 18
64 39 0 6 7 11 15 11 8 0 15 5 15 10 0 11 50 14 51 3 0 -5 2 -16 4 -25 4 -22
-21 -24 -29 -3 -3 8 -10 15 -16 15 -5 0 -10 -7 -10 -15 0 -8 7 -15 15 -15 9 0
15 -9 15 -25 0 -28 15 -34 24 -9 9 25 50 14 54 -15 4 -26 24 -51 41 -51 6 0
11 -7 11 -15 0 -8 -7 -15 -15 -15 -8 0 -15 -6 -15 -14 0 -8 -6 -16 -12 -19 -8
-2 -9 -8 -4 -13 5 -5 11 -4 13 4 3 6 11 12 19 12 8 0 14 7 14 15 0 9 9 15 25
15 16 0 25 -6 25 -15 0 -17 16 -20 25 -5 3 6 -1 13 -9 16 -20 8 -21 34 -1 34
8 0 15 5 15 10 0 6 -25 10 -55 10 -42 0 -55 3 -55 15 0 8 7 15 15 15 8 0 15 5
15 10 0 6 -7 10 -15 10 -10 0 -15 10 -15 30 0 17 -4 30 -10 30 -5 0 -10 -7
-10 -15 0 -8 -7 -15 -15 -15 -36 0 -4 46 36 52 28 4 42 48 15 48 -9 0 -16 7
-16 15 0 8 -7 15 -15 15 -8 0 -15 5 -15 11 0 14 -25 39 -39 39 -6 0 -11 -4
-11 -10 0 -5 -7 -10 -15 -10 -8 0 -15 5 -15 10 0 6 -4 10 -10 10 -5 0 -10 -11
-10 -25 0 -16 -6 -25 -15 -25 -9 0 -15 9 -15 25 0 22 -4 25 -35 25 l-35 0 0
-90z"/>
<path d="M8710 4660 c0 -5 5 -10 10 -10 6 0 10 -7 10 -15 0 -8 5 -15 11 -15
14 0 39 -25 39 -39 0 -6 7 -11 15 -11 9 0 15 9 15 25 0 20 5 25 25 25 16 0 25
-6 25 -15 0 -8 -4 -15 -10 -15 -5 0 -10 -11 -10 -25 0 -20 -5 -25 -26 -25 -14
0 -32 -6 -40 -14 -16 -17 -19 -56 -4 -56 6 0 10 -7 10 -15 0 -10 10 -15 30
-15 19 0 30 5 29 13 -1 6 -1 24 0 40 1 34 21 36 21 2 0 -16 6 -25 15 -25 8 0
15 -7 15 -15 0 -8 7 -15 15 -15 8 0 14 5 13 11 -2 6 3 14 10 16 6 3 12 -2 12
-11 0 -9 7 -16 15 -16 8 0 15 7 15 16 0 17 22 14 28 -4 2 -7 -3 -12 -12 -12
-12 0 -16 -10 -16 -40 0 -28 -4 -40 -14 -40 -8 0 -17 6 -19 13 -4 9 -8 9 -14
1 -4 -7 -19 -14 -33 -15 -43 -6 -23 -24 30 -27 46 -3 50 -5 50 -28 0 -15 -6
-24 -15 -24 -8 0 -15 -7 -15 -15 0 -9 -9 -15 -25 -15 -21 0 -25 5 -25 31 0 38
-24 35 -28 -4 -4 -34 -22 -36 -22 -3 0 31 -38 46 -55 22 -7 -9 -22 -16 -34
-16 -11 0 -21 -5 -21 -10 0 -18 -59 -70 -79 -70 -10 0 -27 11 -37 25 -10 14
-23 25 -27 25 -12 0 -37 -27 -37 -39 0 -6 -7 -11 -15 -11 -11 0 -15 -11 -15
-40 0 -36 -2 -40 -25 -40 -26 0 -35 24 -12 34 10 5 10 7 0 12 -23 10 -14 34
12 34 16 0 25 6 25 15 0 9 -9 15 -25 15 -16 0 -25 -6 -25 -15 0 -8 -7 -15 -15
-15 -8 0 -15 7 -15 15 0 9 -9 15 -25 15 -22 0 -25 -4 -25 -40 0 -29 -4 -40
-15 -40 -11 0 -15 11 -15 39 0 22 -6 42 -12 45 -10 5 -10 7 0 12 14 7 16 34 2
34 -5 0 -10 7 -10 15 0 8 5 15 10 15 6 0 10 28 10 65 0 63 -1 65 -25 65 -25 0
-25 -1 -25 -80 0 -64 3 -80 15 -80 8 0 15 -7 15 -15 0 -8 -7 -15 -15 -15 -8 0
-15 -4 -15 -10 0 -5 7 -10 15 -10 12 0 15 -13 15 -55 0 -42 -3 -55 -15 -55 -8
0 -15 -4 -15 -10 0 -5 42 -11 93 -12 l92 -3 3 -92 c3 -104 22 -129 22 -29 0
52 3 65 18 71 16 6 16 7 0 19 -10 7 -18 23 -18 35 0 16 6 21 25 21 26 0 35
-24 13 -34 -10 -5 -10 -7 0 -12 14 -7 16 -50 2 -59 -5 -3 -10 -17 -10 -31 0
-19 5 -24 25 -24 14 0 25 -4 25 -10 0 -5 7 -10 15 -10 8 0 15 -7 15 -15 0 -8
5 -15 10 -15 6 0 10 7 10 15 0 8 7 15 15 15 8 0 15 -7 15 -15 0 -8 5 -15 10
-15 14 0 12 27 -2 34 -10 5 -10 7 0 12 6 3 12 12 12 20 0 19 26 18 34 -2 3 -8
10 -12 16 -9 15 9 12 25 -5 25 -8 0 -15 7 -15 15 0 8 7 15 15 15 8 0 15 5 15
10 0 15 -19 12 -36 -5 -8 -8 -21 -12 -29 -9 -17 7 -20 24 -5 24 6 0 10 7 10
15 0 8 -4 15 -10 15 -5 0 -10 7 -10 15 0 9 9 15 25 15 14 0 25 5 25 10 0 6 7
10 15 10 8 0 15 7 15 15 0 8 4 15 9 15 5 0 11 -7 15 -15 6 -16 41 -21 50 -7 7
12 -31 42 -54 42 -11 0 -20 -4 -20 -10 0 -5 -7 -10 -15 -10 -8 0 -15 5 -15 10
0 6 -4 10 -10 10 -5 0 -10 -11 -10 -25 0 -16 -6 -25 -15 -25 -19 0 -20 46 -1
66 17 16 36 19 36 4 0 -5 5 -10 11 -10 14 0 39 25 39 39 0 7 37 11 105 11 63
0 105 4 105 10 0 6 7 10 15 10 8 0 15 7 15 15 0 8 -7 15 -15 15 -9 0 -15 9
-15 25 0 14 -4 25 -10 25 -5 0 -10 7 -10 15 0 9 9 15 25 15 16 0 25 6 25 16 0
17 22 14 28 -4 2 -7 -3 -12 -12 -12 -12 0 -16 -10 -16 -40 0 -29 4 -40 15 -40
8 0 15 -7 15 -15 0 -8 -7 -15 -15 -15 -22 0 -19 -56 5 -80 26 -26 30 -25 30 5
0 14 -4 25 -10 25 -5 0 -10 7 -10 15 0 8 5 15 10 15 15 0 12 77 -2 84 -10 5
-10 7 0 12 22 10 14 75 -13 100 -26 24 -33 44 -15 44 6 0 13 -7 16 -15 9 -24
24 -17 24 10 0 25 -1 25 -90 25 l-90 0 0 90 c0 73 -3 90 -15 90 -8 0 -15 -4
-15 -10 0 -5 -11 -10 -25 -10 -16 0 -25 -6 -25 -15 0 -9 -9 -15 -25 -15 -26 0
-35 25 -12 33 7 2 8 8 3 13 -5 5 -11 4 -13 -3 -5 -15 -33 -17 -33 -3 0 6 -4
10 -10 10 -5 0 -10 -4 -10 -10z"/>
<path d="M8340 4585 l0 -65 65 0 65 0 0 65 0 65 -65 0 -65 0 0 -65z"/>
<path d="M8920 4585 l0 -65 65 0 65 0 0 65 0 65 -65 0 -65 0 0 -65z"/>
<path d="M3752 4354 c-4 -81 -15 -93 -152 -161 -115 -57 -173 -81 -224 -90
-11 -2 -24 -8 -30 -13 -16 -13 -94 -38 -144 -46 -50 -8 -56 -14 -43 -46 5 -13
13 -41 17 -63 l7 -40 10 31 c9 32 53 62 68 47 8 -8 -21 -517 -41 -722 -5 -58
-10 -108 -10 -113 0 -4 -51 -8 -114 -8 l-114 0 -6 -587 c-3 -324 -9 -717 -12
-874 l-6 -287 449 -6 c246 -3 642 -9 879 -12 l432 -6 6 828 c3 456 8 850 11
877 l4 47 -102 1 c-56 0 -290 2 -521 5 -346 5 -417 3 -411 -8 6 -10 5 -11 -6
0 -19 17 -26 15 -33 -10 -5 -19 -8 -20 -15 -8 -5 8 -7 18 -5 22 6 10 -10 11
-19 1 -4 -3 -2 -12 3 -18 14 -17 18 -76 7 -99 -6 -13 -6 -16 2 -12 22 14 11
-17 -15 -41 -14 -13 -25 -33 -24 -46 3 -37 1 -48 -10 -42 -5 3 -10 -3 -10 -14
0 -11 -4 -23 -10 -26 -6 -3 -10 4 -10 18 0 14 -8 31 -17 38 -15 11 -16 11 -5
-1 14 -16 16 -56 3 -64 -4 -3 -12 -20 -16 -38 -4 -18 -9 -27 -12 -20 -4 10 -8
10 -19 1 -19 -15 -18 -4 1 14 13 13 12 17 -2 29 -14 11 -16 11 -11 -3 3 -8 -3
-26 -13 -40 -20 -25 -25 -64 -10 -73 12 -8 21 -46 10 -46 -5 0 -9 9 -9 20 0
11 -4 20 -10 20 -5 0 -10 -13 -10 -29 0 -29 19 -55 21 -29 0 7 4 0 9 -15 5
-15 7 -45 6 -67 -2 -21 0 -44 5 -51 4 -8 3 -19 -2 -25 -11 -14 -12 -35 -9
-177 2 -59 0 -110 -4 -114 -3 -3 -6 33 -6 82 0 49 -5 129 -11 178 -9 69 -9 91
0 97 9 5 10 16 2 41 -9 28 -10 29 -7 6 2 -15 -1 -30 -5 -33 -8 -5 -14 46 -11
86 1 8 2 62 2 120 1 58 5 130 10 160 5 30 13 92 17 138 l8 82 -75 1 c-41 1
-78 1 -82 0 -15 -2 -4 129 17 219 7 32 12 104 25 360 14 283 15 286 54 300 17
7 49 20 71 30 65 30 108 34 127 13 16 -17 53 -107 84 -202 40 -125 317 -651
342 -651 7 0 11 3 9 8 -3 4 -34 69 -71 145 -36 75 -70 137 -75 137 -5 0 -13
10 -17 23 -4 12 -10 24 -14 27 -10 8 -65 128 -86 190 -11 30 -22 57 -26 58 -5
2 -8 12 -8 22 0 10 -17 53 -39 96 -64 132 -86 193 -74 205 21 21 38 2 107
-122 39 -68 110 -189 159 -268 49 -79 113 -184 142 -235 28 -50 78 -131 109
-179 l57 -88 62 7 c34 3 66 10 70 14 5 4 8 69 8 143 -1 75 3 164 8 199 14 86
15 152 6 222 -5 35 -4 57 1 54 5 -4 9 8 10 25 2 93 18 217 28 217 6 0 28 -4
49 -9 32 -8 36 -7 26 5 -6 8 -15 11 -21 8 -5 -3 -16 0 -24 7 -9 8 -49 14 -97
15 -132 4 -161 9 -317 62 -230 77 -246 87 -242 162 2 19 -1 41 -6 48 -6 8 -9
-4 -10 -34z m175 -216 c48 -52 203 -379 203 -429 0 -31 -32 -45 -54 -23 -8 8
-21 14 -29 14 -17 0 -37 -49 -37 -91 0 -15 -4 -30 -9 -33 -7 -5 -154 239 -253
422 -37 68 -39 75 -24 91 9 10 16 23 16 29 0 11 51 24 102 26 16 1 28 4 28 9
0 16 38 6 57 -15z m268 -102 c27 -20 44 -112 44 -246 1 -187 -25 -388 -57
-437 -8 -13 -12 -29 -9 -37 4 -10 1 -13 -9 -9 -8 3 -12 8 -9 11 3 3 -1 12 -9
21 -19 22 -46 108 -46 147 0 17 12 57 26 88 34 74 34 145 0 259 -27 92 -33
165 -16 198 13 23 57 25 85 5z m-630 -2195 c44 -11 108 -22 143 -26 59 -7 71
-13 55 -29 -9 -9 -10 -14 -12 -56 -1 -24 -5 -30 -24 -30 -13 0 -28 -5 -35 -12
-9 -9 -12 -9 -12 0 0 8 -17 12 -48 12 -27 0 -68 6 -93 14 -24 8 -56 17 -70 20
-23 5 -25 10 -22 38 3 18 4 48 4 66 0 26 4 32 17 28 9 -3 53 -14 97 -25z m757
22 c2 -5 2 -38 0 -75 l-4 -66 -33 14 c-47 19 -146 18 -190 -3 -19 -9 -37 -14
-40 -11 -3 3 -14 29 -24 59 l-20 54 22 8 c60 23 281 38 289 20z m-536 -305
c-12 -10 -30 -18 -41 -18 -18 -1 -18 -2 -3 -8 10 -4 -7 -8 -40 -8 -36 -1 -89
-12 -147 -33 -117 -41 -332 -63 -373 -38 -6 5 -12 21 -12 36 l0 28 53 -14 c87
-23 229 -5 334 43 29 13 90 33 135 44 46 12 88 26 93 31 7 7 12 1 16 -18 4
-21 0 -32 -15 -45z"/>
<path d="M8340 4005 l0 -65 65 0 65 0 0 65 0 65 -65 0 -65 0 0 -65z"/>
<path d="M3549 3544 c-83 -56 -81 -54 -67 -100 10 -28 12 -79 8 -176 -6 -154
-9 -149 75 -138 38 5 40 7 37 35 -2 17 -4 47 -5 68 -1 20 -5 37 -8 37 -4 0 -7
10 -7 23 -1 38 -12 149 -16 156 -7 11 21 67 43 88 18 17 19 22 8 32 -11 9 -26
4 -68 -25z"/>
<path d="M5724 3012 c-6 -4 -12 -27 -13 -52 -4 -73 -7 -88 -18 -102 -6 -7 -12
-17 -14 -23 -9 -40 -12 -43 -31 -40 -35 7 -40 -6 -13 -32 30 -31 31 -47 5 -75
-11 -12 -20 -28 -20 -35 0 -9 -8 -11 -26 -7 -19 5 -25 4 -20 -5 4 -6 1 -11 -6
-11 -9 0 -9 -3 2 -10 8 -5 11 -10 5 -10 -5 0 -17 5 -25 10 -10 6 -11 10 -3 10
15 0 11 53 -5 73 -6 7 -10 43 -10 81 0 47 3 64 10 55 7 -10 8 -7 4 11 -3 14
-6 31 -6 38 0 6 -9 12 -21 12 -11 0 -27 7 -35 15 -26 25 -32 17 -23 -30 8 -41
13 -175 11 -267 -1 -21 -6 -47 -12 -59 -15 -27 -21 -201 -9 -269 15 -93 29
-161 50 -249 11 -46 18 -90 15 -97 -3 -9 2 -14 15 -14 22 0 22 -1 -1 130 -5
30 -9 64 -9 75 0 11 -4 49 -10 85 -28 165 -30 210 -17 275 10 51 10 53 2 95
-5 25 -4 31 3 20 6 -8 15 -39 21 -67 14 -64 30 -78 31 -26 1 53 13 91 23 75 4
-6 4 -17 1 -22 -4 -6 -2 -16 3 -23 6 -7 10 -14 10 -17 0 -3 5 -23 11 -45 6
-22 11 -53 11 -68 0 -18 4 -26 11 -21 9 5 10 -6 5 -41 -5 -28 -4 -45 2 -41 5
3 12 37 16 75 3 38 10 79 14 92 8 22 9 21 20 -11 20 -56 26 -163 11 -191 -7
-13 -14 -49 -15 -79 -4 -93 -14 -140 -29 -140 -10 0 -13 -10 -9 -37 3 -21 6
-46 7 -57 2 -20 -14 -32 -55 -41 -19 -3 -28 -12 -28 -24 0 -22 18 -32 40 -21
8 4 24 4 35 -1 17 -6 17 -8 3 -8 -10 -1 -18 -6 -18 -12 0 -6 7 -9 15 -5 8 3
15 1 15 -4 0 -6 -8 -10 -17 -11 -12 -1 -10 -4 7 -9 16 -5 19 -8 8 -9 -9 -1
-20 -6 -24 -13 -5 -8 0 -9 14 -6 12 4 25 2 28 -3 3 -5 -7 -9 -23 -10 -15 0
-37 -4 -48 -9 -18 -8 -17 -9 7 -9 15 -1 31 -8 36 -17 5 -9 12 -15 15 -15 4 1
7 -2 6 -5 0 -4 5 -11 13 -16 8 -6 2 -7 -19 -4 -18 2 -33 0 -33 -5 0 -5 6 -9
14 -9 8 0 18 -4 21 -10 4 -6 -7 -8 -27 -5 -26 4 -29 3 -13 -4 17 -8 13 -10
-19 -10 -49 -1 -44 -7 12 -14 24 -3 40 -1 36 4 -9 15 13 10 26 -6 11 -13 10
-14 -6 -9 -18 7 -18 7 0 -15 20 -22 20 -22 0 -15 -18 7 -18 7 1 -16 l20 -24
-25 17 c-16 12 -42 17 -80 16 l-55 -2 57 -6 c63 -7 104 -35 89 -60 -6 -9 -11
-10 -15 -2 -4 6 -2 11 4 11 6 0 8 5 5 10 -3 5 -11 10 -16 10 -6 0 -7 -4 -4
-10 4 -6 -14 -10 -47 -10 -29 0 -59 -4 -66 -9 -7 -4 11 -6 41 -3 58 5 97 -9
97 -34 0 -13 -2 -13 -22 0 -12 9 -36 16 -53 16 -30 -1 -30 -1 8 -14 20 -8 44
-19 52 -26 23 -19 7 -32 -18 -15 -12 8 -33 14 -47 14 -21 -1 -21 -2 -5 -6 11
-3 32 -14 47 -24 26 -19 27 -19 36 -2 6 10 13 45 17 78 4 33 9 66 10 73 1 8 8
18 16 23 12 7 12 9 -1 10 -10 0 -8 3 5 9 11 5 15 9 8 9 -7 1 -10 8 -7 16 4 8
2 15 -4 15 -5 0 -8 18 -6 40 2 36 0 40 -17 35 -10 -3 -27 -1 -36 5 -17 10 -17
10 2 9 41 -3 55 1 55 16 0 8 -4 15 -9 15 -5 0 -7 10 -3 22 3 12 1 19 -5 15 -6
-4 -6 15 0 55 7 49 6 63 -5 69 -11 6 -12 26 -6 101 5 51 13 112 18 136 14 61
12 163 -5 257 -15 79 -15 83 9 166 13 46 29 140 35 209 7 69 14 140 17 158 5
32 -7 41 -32 24z"/>
<path d="M5913 2995 c4 -16 14 -79 22 -140 9 -60 23 -157 32 -215 17 -122 17
-148 -2 -242 -17 -79 -19 -165 -5 -223 5 -22 10 -80 11 -130 2 -67 6 -93 17
-101 11 -8 12 -13 4 -18 -7 -4 -12 -2 -12 3 0 6 -4 11 -10 11 -5 0 -10 -9 -10
-21 0 -11 5 -17 10 -14 6 3 10 1 10 -5 0 -7 6 -10 12 -8 7 3 19 -1 26 -9 7 -7
22 -13 33 -13 15 0 19 -5 15 -18 -4 -13 -1 -18 14 -18 11 0 20 6 20 14 0 7 -5
10 -12 6 -7 -4 -8 -3 -4 5 4 6 11 9 16 6 13 -8 27 18 32 60 3 22 17 83 31 135
67 250 67 248 65 379 -1 69 -3 108 -5 86 -3 -22 -10 -46 -16 -54 -10 -12 -9
-13 2 -6 13 8 14 -6 1 -143 0 -2 -5 0 -11 3 -6 4 -9 -2 -7 -17 3 -28 -22 -108
-39 -126 -7 -7 -13 -23 -13 -35 0 -12 -7 -34 -14 -49 -8 -15 -11 -30 -7 -33 5
-2 4 -26 -1 -52 -6 -27 -12 -58 -14 -71 -4 -18 -10 -22 -32 -19 -15 3 -35 0
-44 -5 -22 -11 -22 -5 -2 63 9 30 18 60 20 67 2 7 7 11 11 9 11 -7 17 128 10
218 -2 17 1 37 5 46 4 9 10 36 13 60 15 125 16 130 39 127 18 -3 21 -9 19 -48
l-3 -45 20 40 c11 22 18 32 16 23 -4 -15 -2 -16 12 -7 24 15 33 175 16 293 -5
39 -4 47 6 41 8 -5 11 -4 6 3 -3 6 -2 13 4 17 5 3 10 16 10 27 0 16 -5 13 -26
-18 -25 -36 -26 -42 -15 -82 23 -89 5 -157 -51 -188 -33 -19 -38 -17 -38 11 0
14 -7 28 -16 32 -11 4 -15 17 -13 44 3 30 -2 45 -23 66 -43 46 -60 99 -63 196
-3 100 -9 119 -19 52 -9 -55 -26 -60 -26 -6 0 24 -6 44 -17 52 -15 13 -16 11
-10 -16z"/>
</g>
</svg>
