<?xml version="1.0" standalone="no"?>
<!DOCTYPE svg PUBLIC "-//W3C//DTD SVG 20010904//EN"
 "http://www.w3.org/TR/2001/REC-SVG-20010904/DTD/svg10.dtd">
<svg version="1.0" xmlns="http://www.w3.org/2000/svg"
 width="300.000000pt" height="270.000000pt" viewBox="0 0 300.000000 270.000000"
 preserveAspectRatio="xMidYMid meet">
<metadata>
Created by potrace 1.10, written by Peter Selinger 2001-2011
</metadata>
<g transform="translate(0.000000,270.000000) scale(0.100000,-0.100000)"
fill="#000000" stroke="none">
<path d="M600 2488 c0 -4 5 -8 10 -8 6 0 10 -28 10 -65 0 -37 -4 -65 -10 -65
-5 0 -10 -4 -10 -9 0 -5 16 -9 35 -9 19 0 35 4 35 9 0 5 -6 9 -12 9 -7 0 -13
13 -14 30 -1 29 0 30 42 30 42 0 44 -1 44 -30 0 -16 -4 -30 -10 -30 -5 0 -10
-4 -10 -8 0 -5 14 -9 30 -9 17 0 30 4 30 9 0 4 -4 8 -10 8 -6 0 -10 28 -10 65
0 37 4 65 10 65 6 0 10 4 10 8 0 5 -13 9 -30 9 -16 0 -30 -4 -30 -9 0 -4 5 -8
10 -8 6 0 10 -11 10 -25 0 -23 -4 -25 -44 -25 -41 0 -44 2 -42 25 0 14 7 25
14 25 6 0 12 4 12 8 0 4 -16 8 -35 8 -19 0 -35 -4 -35 -8z"/>
<path d="M1650 2488 c0 -4 5 -8 10 -8 6 0 10 -28 10 -65 0 -37 -4 -65 -10 -65
-5 0 -10 -4 -10 -8 0 -4 25 -9 55 -10 43 -2 57 1 61 13 4 9 3 19 -1 23 -4 4
-10 1 -12 -5 -3 -7 -18 -13 -34 -13 -26 0 -29 4 -29 30 0 25 4 30 25 30 14 0
25 5 25 10 0 6 -11 10 -25 10 -20 0 -25 5 -25 25 0 20 5 25 25 25 13 0 29 -8
35 -17 9 -16 10 -15 8 7 -3 23 -7 25 -55 26 -29 0 -53 -3 -53 -8z"/>
<path d="M2325 2475 c-5 -11 -13 -23 -19 -27 -7 -5 -7 -8 2 -8 8 0 12 -16 12
-44 0 -53 19 -74 53 -58 21 10 21 11 -5 11 -26 1 -28 4 -28 45 0 38 3 45 23
49 22 4 22 4 0 6 -14 1 -23 9 -26 24 -3 21 -4 21 -12 2z"/>
<path d="M797 2442 c-25 -27 -22 -78 5 -96 29 -20 52 -20 69 0 11 13 9 14 -14
9 -29 -8 -57 8 -57 31 0 10 13 14 40 14 33 0 40 3 40 20 0 19 -27 40 -53 40
-8 0 -21 -8 -30 -18z m61 -28 c-3 -3 -19 -4 -34 -2 -27 3 -27 4 -9 21 16 17
19 17 33 3 9 -9 13 -18 10 -22z"/>
<path d="M900 2450 c-10 -6 -11 -10 -2 -10 8 0 12 -16 12 -45 0 -25 -4 -45
-10 -45 -5 0 -10 -4 -10 -8 0 -5 14 -9 30 -9 17 0 30 4 30 9 0 4 -5 8 -11 8
-17 0 -7 85 11 86 8 1 19 2 25 3 5 0 4 6 -3 13 -8 8 -15 8 -27 -2 -10 -8 -15
-9 -15 -1 0 13 -10 14 -30 1z"/>
<path d="M999 2453 c0 -5 0 -27 1 -51 1 -24 -4 -49 -10 -57 -9 -11 -6 -14 19
-13 17 1 31 5 31 10 0 4 -4 8 -10 8 -5 0 -10 18 -10 39 0 31 4 41 20 46 11 3
24 3 30 0 13 -8 13 -85 0 -85 -5 0 -10 -4 -10 -9 0 -5 14 -9 30 -9 27 1 45 18
19 18 -6 0 -9 17 -7 43 3 37 6 42 28 42 22 0 25 -5 28 -42 2 -26 -1 -43 -7
-43 -27 0 -8 -17 20 -18 23 0 28 2 20 11 -5 7 -11 32 -13 56 -4 53 -26 73 -59
53 -16 -10 -24 -11 -35 -1 -11 9 -21 9 -39 1 -15 -7 -25 -8 -25 -2 0 12 -20
14 -21 3z"/>
<path d="M1224 2445 c-18 -14 -17 -14 12 -9 24 5 33 2 38 -11 3 -10 5 -19 4
-19 -2 -1 -16 -6 -33 -12 -20 -6 -31 -17 -33 -32 -4 -27 23 -40 49 -24 11 7
20 8 24 2 14 -23 22 -7 17 38 -8 80 -33 101 -78 67z m54 -72 c-4 -23 -48 -31
-48 -10 0 9 6 18 13 20 25 11 38 7 35 -10z"/>
<path d="M1325 2450 c-3 -5 -2 -10 3 -10 6 0 9 -8 7 -17 -2 -10 -6 -34 -9 -54
-4 -33 -2 -36 20 -36 13 0 24 3 24 8 0 5 -4 9 -10 9 -5 0 -10 18 -10 39 0 31
4 41 20 46 11 3 24 3 30 0 14 -8 13 -78 -1 -92 -9 -9 -4 -12 20 -11 17 1 31 5
31 10 0 4 -4 8 -10 8 -5 0 -10 20 -10 44 0 54 -19 74 -55 58 -15 -7 -25 -8
-25 -2 0 13 -17 13 -25 0z"/>
<path d="M1482 2444 c-56 -39 7 -144 64 -106 37 24 39 93 4 112 -26 14 -42 12
-68 -6z m63 -49 c0 -36 -3 -40 -25 -40 -18 0 -27 7 -34 27 -12 33 7 60 38 56
17 -2 21 -10 21 -43z"/>
<path d="M1774 2445 c40 -95 50 -115 57 -115 4 0 15 21 25 48 9 26 21 51 26
57 14 15 9 25 -13 25 -15 0 -19 -5 -14 -18 3 -11 -1 -34 -8 -51 l-14 -33 -16
38 c-8 22 -11 41 -6 42 19 8 8 22 -16 20 -14 -1 -23 -7 -21 -13z"/>
<path d="M1917 2442 c-40 -44 -5 -121 48 -108 14 4 25 10 25 15 0 5 -9 7 -20
4 -23 -6 -50 12 -50 33 0 10 13 14 40 14 33 0 40 3 40 20 0 19 -27 40 -53 40
-8 0 -21 -8 -30 -18z m61 -19 c2 -9 -7 -13 -27 -13 -30 0 -39 9 -24 24 11 10
46 3 51 -11z"/>
<path d="M2020 2450 c-10 -6 -11 -10 -2 -10 8 0 12 -16 12 -45 0 -25 -4 -45
-10 -45 -5 0 -10 -4 -10 -8 0 -5 14 -9 30 -10 17 0 30 4 30 9 0 5 -5 9 -11 9
-17 0 -7 85 11 86 8 1 19 2 25 3 5 0 4 6 -3 13 -8 8 -15 8 -27 -2 -10 -8 -15
-9 -15 -1 0 13 -10 14 -30 1z"/>
<path d="M2120 2440 c-48 -48 1 -128 64 -104 27 11 17 24 -13 18 -23 -5 -32
-2 -40 14 -16 30 -15 32 29 32 32 0 40 4 40 18 0 42 -47 55 -80 22z m60 -15
c0 -10 -10 -15 -30 -15 -22 0 -28 4 -24 15 4 8 17 15 30 15 15 0 24 -6 24 -15z"/>
<path d="M2232 2448 c-21 -21 -13 -47 18 -63 17 -9 28 -20 25 -25 -8 -13 -45
-13 -45 0 0 6 -5 10 -10 10 -7 0 -7 -6 0 -20 13 -25 42 -26 64 -1 21 23 12 47
-20 55 -13 4 -24 13 -24 21 0 18 36 20 44 3 3 -7 5 -4 3 7 -3 23 -36 32 -55
13z"/>
<path d="M838 2250 c-25 -23 -22 -40 6 -40 17 0 25 7 28 25 3 13 2 22 -3 20
-4 -3 -9 -1 -11 3 -1 5 -11 2 -20 -8z m22 -18 c0 -5 -7 -9 -15 -9 -8 0 -12 4
-9 9 3 4 9 8 15 8 5 0 9 -4 9 -8z"/>
<path d="M1028 2245 c-10 -13 -18 -26 -18 -29 0 -8 120 -5 120 3 0 3 3 16 6
29 4 13 2 22 -5 22 -7 0 -9 -4 -6 -10 3 -5 0 -10 -7 -11 -52 -4 -64 -3 -68 8
-3 7 -12 2 -22 -12z m16 -13 c3 -5 -1 -9 -9 -9 -8 0 -12 4 -9 9 3 4 7 8 9 8 2
0 6 -4 9 -8z m51 -2 c-3 -5 -14 -10 -23 -9 -14 0 -13 2 3 9 27 11 27 11 20 0z"/>
<path d="M1190 2258 c0 -9 -3 -23 -6 -32 -5 -12 1 -16 23 -16 22 0 29 5 29 20
0 11 -6 20 -13 20 -7 0 -10 -8 -8 -17 3 -10 -1 -4 -9 12 -9 18 -15 23 -16 13z"/>
<path d="M1570 2257 c0 -9 -2 -22 -5 -30 -5 -11 10 -14 76 -15 45 -1 79 2 75
6 -4 4 -16 8 -27 8 -37 3 -40 4 -34 14 3 6 1 10 -5 10 -7 0 -10 -7 -6 -15 3
-8 1 -15 -4 -15 -6 0 -10 7 -10 16 0 10 -6 14 -15 10 -8 -3 -21 2 -30 10 -13
14 -15 14 -15 1z"/>
<path d="M1770 2245 c0 -14 -4 -25 -10 -25 -5 0 -6 8 -3 18 6 15 5 15 -10 3
-20 -16 -13 -31 14 -31 14 0 19 7 19 30 0 17 -2 30 -5 30 -3 0 -5 -11 -5 -25z"/>
<path d="M1896 2257 c3 -9 -3 -13 -18 -12 -26 3 -51 -13 -42 -26 10 -17 62
-10 67 9 4 16 5 16 6 -1 1 -13 8 -17 23 -15 26 3 38 38 14 38 -9 0 -16 -5 -16
-11 0 -5 5 -7 10 -4 6 3 10 1 10 -4 0 -20 -20 -11 -32 14 -11 25 -32 36 -22
12z m-6 -27 c0 -5 -5 -10 -11 -10 -5 0 -7 5 -4 10 3 6 8 10 11 10 2 0 4 -4 4
-10z"/>
<path d="M1988 2245 c-20 -26 -15 -35 20 -35 18 0 22 3 14 13 -5 6 -11 19 -13
29 -3 14 -7 13 -21 -7z"/>
<path d="M2046 2255 c5 -11 2 -13 -10 -9 -20 8 -21 -3 -2 -22 20 -19 21 -18
23 16 1 17 -2 30 -7 30 -5 0 -7 -7 -4 -15z"/>
<path d="M2225 2260 c3 -5 2 -10 -4 -10 -6 0 -8 -8 -5 -17 5 -17 5 -17 -9 0
-8 9 -19 17 -26 17 -6 0 -11 -8 -12 -17 0 -15 -2 -15 -9 2 -9 20 -9 20 -10 0
-1 -20 -1 -20 -10 0 -8 19 -9 19 -9 -2 -1 -21 4 -23 48 -23 39 0 51 4 54 18 4
15 5 15 6 -1 1 -23 25 -17 30 8 2 13 -1 16 -13 12 -10 -4 -16 -1 -16 8 0 8 -5
15 -11 15 -5 0 -7 -4 -4 -10z"/>
<path d="M720 2235 c0 -29 27 -35 37 -8 6 15 7 15 14 -3 7 -18 8 -18 9 1 1 20
1 20 10 0 8 -19 9 -19 9 3 1 12 -3 22 -8 22 -5 0 -17 3 -26 6 -9 4 -15 3 -14
-2 3 -20 -2 -34 -12 -34 -6 0 -8 9 -4 20 4 11 2 20 -4 20 -6 0 -11 -11 -11
-25z"/>
<path d="M938 2253 c-11 -3 -18 -13 -17 -26 1 -18 2 -19 6 -4 3 11 11 16 19
13 8 -3 14 1 14 9 0 8 -1 14 -2 14 -2 -1 -11 -3 -20 -6z"/>
<path d="M1258 2235 c-3 -14 -1 -25 3 -25 9 0 13 15 10 33 -1 5 3 6 9 2 5 -3
10 -1 10 4 0 22 -28 10 -32 -14z"/>
<path d="M1337 2254 c-4 -4 -7 -17 -6 -28 0 -21 1 -21 9 -1 7 17 9 17 9 3 1
-26 31 -22 31 3 0 14 -5 19 -14 16 -8 -3 -16 -1 -18 4 -2 6 -7 7 -11 3z"/>
<path d="M1483 2252 c-12 -2 -24 -11 -26 -20 -4 -15 -5 -15 -6 1 0 9 -5 17
-11 17 -5 0 -7 -8 -3 -17 5 -16 4 -15 -9 1 -18 23 -42 12 -35 -15 3 -10 0 -20
-7 -23 -6 -2 -3 -5 8 -5 15 -1 17 4 12 27 -5 19 -4 23 3 12 11 -16 91 -24 91
-9 0 6 -4 8 -9 4 -5 -3 -12 -2 -15 3 -2 4 4 9 15 9 10 1 19 -5 19 -13 0 -8 8
-14 18 -14 11 0 18 7 18 21 0 14 -5 19 -18 16 -9 -3 -18 -2 -20 2 -2 3 -13 5
-25 3z"/>
<path d="M1671 2244 c0 -11 3 -14 6 -6 3 7 2 16 -1 19 -3 4 -6 -2 -5 -13z"/>
<path d="M1805 2235 c0 -32 7 -32 22 0 9 21 9 25 -5 25 -11 0 -17 -8 -17 -25z"/>
<path d="M887 2243 c-13 -12 -7 -33 8 -33 8 0 15 9 15 20 0 20 -11 26 -23 13z"/>
<path d="M970 2239 c0 -5 5 -7 12 -3 6 4 8 3 4 -4 -3 -6 -15 -9 -26 -7 -11 2
-20 0 -20 -6 0 -15 47 -10 53 5 6 15 -1 26 -15 26 -4 0 -8 -5 -8 -11z"/>
<path d="M1147 2243 c-11 -11 -8 -33 5 -33 6 0 8 3 5 7 -4 3 -2 12 4 20 11 13
-2 19 -14 6z"/>
<path d="M1297 2243 c-13 -12 -7 -33 8 -33 8 0 15 9 15 20 0 20 -11 26 -23 13z"/>
<path d="M1690 2242 c0 -5 7 -9 15 -9 8 0 15 4 15 9 0 4 -7 8 -15 8 -8 0 -15
-4 -15 -8z"/>
<path d="M2080 2230 c0 -11 4 -20 10 -20 5 0 7 8 4 18 -5 14 -3 14 10 -2 16
-19 16 -19 16 2 0 15 -6 22 -20 22 -13 0 -20 -7 -20 -20z"/>
<path d="M1060 2043 l-155 -3 3 -128 c1 -70 5 -187 8 -260 5 -113 8 -131 20
-121 8 6 11 17 7 23 -5 6 -8 112 -8 235 l0 225 60 3 c149 7 385 9 394 4 5 -3
11 -107 14 -231 2 -124 8 -233 12 -242 6 -15 1 -18 -33 -18 -48 0 -52 -7 -52
-101 0 -64 -2 -69 -21 -69 -16 0 -19 3 -11 13 5 6 12 42 14 80 4 69 -4 71 -16
5 -7 -37 -8 -37 -51 -36 -40 0 -45 3 -50 29 -10 44 -20 35 -21 -19 -1 -33 1
-41 7 -27 4 11 8 14 10 8 1 -7 3 -17 4 -23 1 -5 3 -16 4 -23 1 -14 4 -14 104
-17 38 -1 71 1 74 4 4 3 -3 6 -14 6 -18 0 -20 6 -19 78 l1 77 30 0 c22 -1 31
-6 32 -20 2 -11 6 -35 9 -52 3 -18 2 -33 -3 -33 -5 0 -9 -18 -8 -40 0 -22 3
-40 8 -40 4 0 7 -14 7 -31 0 -18 4 -28 10 -24 6 4 10 3 9 -2 -2 -4 1 -33 4
-63 4 -30 9 -78 11 -106 l4 -52 -50 -10 -50 -9 4 67 c2 40 -1 66 -6 62 -5 -3
-7 2 -3 11 4 10 2 29 -4 44 -5 14 -7 34 -3 42 5 12 9 8 14 -14 l8 -30 1 33 c1
31 23 45 34 22 3 -6 4 -5 3 2 -2 8 -27 16 -62 20 -86 10 -157 40 -165 69 l-6
24 -4 -25 c-4 -27 -55 -57 -136 -82 -41 -12 -43 -14 -44 -53 0 -22 -2 -51 -4
-65 -2 -14 -4 -55 -6 -93 -4 -111 8 -87 15 30 9 146 9 146 23 151 9 2 11 -5 8
-25 -2 -15 -7 -76 -11 -135 l-6 -108 -26 0 c-24 0 -27 4 -28 38 0 53 -15 206
-21 215 -2 4 5 7 16 7 11 0 23 5 26 10 4 6 -5 10 -19 10 -23 0 -26 4 -26 33 0
18 9 50 20 72 11 22 21 59 22 82 l1 43 56 16 c76 21 83 25 36 20 -22 -3 -74
-8 -115 -12 l-75 -6 27 -212 c26 -194 28 -238 28 -538 l-1 -327 276 -3 275 -3
0 262 c0 144 3 268 6 277 5 14 -14 16 -174 16 l-181 0 -6 55 c-5 38 -4 60 5
70 10 12 10 15 -3 15 -18 0 -39 -24 -36 -42 1 -7 1 -32 0 -55 -1 -41 -2 -43
-32 -43 -25 0 -30 3 -25 17 4 10 9 63 12 118 7 133 8 139 43 152 34 12 43 6
56 -37 4 -14 29 -69 56 -122 27 -54 45 -98 40 -98 -6 0 -15 8 -20 18 -9 15
-10 15 -11 0 0 -9 -12 -21 -27 -27 l-28 -11 30 6 c17 4 47 6 68 5 41 -2 43 2
21 39 l-15 25 6 -30 c4 -21 -5 -11 -30 35 -50 91 -105 220 -94 220 5 0 13 -8
17 -19 10 -26 136 -231 139 -227 2 2 -1 15 -6 29 -7 17 -6 35 2 56 8 21 8 42
1 68 -12 49 -7 75 14 71 15 -3 17 -18 16 -98 0 -57 -5 -105 -13 -119 -21 -38
-3 -44 89 -33 45 6 83 12 85 14 2 2 -10 116 -26 253 -21 181 -30 322 -35 508
l-6 257 -102 -2 c-55 -1 -171 -4 -256 -5z m-107 -586 c-6 -53 -24 -101 -33
-90 -11 12 -18 111 -9 120 5 5 17 9 28 10 16 1 18 -4 14 -40z m317 -72 c0 -8
-4 -15 -9 -15 -13 0 -22 16 -14 24 11 11 23 6 23 -9z m170 -60 c0 -8 -2 -15
-4 -15 -2 0 -6 7 -10 15 -3 8 -1 15 4 15 6 0 10 -7 10 -15z m-179 -80 c33 -72
37 -97 14 -89 -11 4 -15 -1 -15 -17 0 -18 -12 -4 -45 51 -52 89 -55 107 -17
113 15 2 28 5 30 6 2 0 16 -28 33 -64z m9 35 c0 -5 -2 -10 -4 -10 -3 0 -8 5
-11 10 -3 6 -1 10 4 10 6 0 11 -4 11 -10z m-130 -324 c4 -12 3 -26 -3 -34 -17
-21 8 -39 30 -21 17 13 17 12 2 -6 -25 -31 -30 -43 -20 -49 11 -7 52 60 55 93
3 19 9 24 33 25 29 1 31 -1 43 -61 7 -35 17 -63 22 -63 6 0 8 7 4 15 -3 8 0
15 6 15 6 0 4 8 -5 18 -10 10 -16 30 -15 43 2 21 7 24 37 24 20 0 36 -5 36
-10 0 -6 -3 -9 -6 -8 -3 1 -6 -4 -6 -12 0 -8 4 -12 9 -9 4 3 8 0 8 -5 0 -6 -7
-11 -16 -11 -14 0 -14 -1 0 -16 19 -18 20 -25 5 -21 -6 1 -13 -3 -15 -8 -2 -6
4 -11 14 -12 10 -1 19 4 20 10 0 7 4 32 9 57 9 45 16 50 60 35 8 -3 11 -70 10
-247 l-2 -243 -37 -3 c-30 -3 -37 0 -32 11 3 8 1 18 -5 22 -6 3 -11 -1 -11 -9
0 -12 -11 -16 -45 -16 -25 0 -45 5 -45 10 0 6 18 10 40 10 43 0 46 4 30 46 -9
23 -14 26 -44 21 -26 -4 -36 -1 -41 10 -3 9 0 20 7 24 7 4 9 11 6 15 -4 3 -14
-1 -23 -10 -12 -12 -14 -20 -5 -36 6 -11 17 -20 24 -20 14 0 14 -19 1 -57 -6
-19 -15 -23 -46 -23 -37 0 -51 12 -29 25 6 3 10 13 10 22 0 14 -2 14 -17 1
-21 -17 -127 -48 -166 -48 -14 0 -30 7 -35 16 -6 11 -11 13 -16 5 -24 -38 -25
-14 -17 420 l1 77 33 5 c60 9 68 -4 67 -101 0 -48 3 -105 8 -127 5 -28 8 -1 7
88 0 115 2 130 19 142 22 17 34 12 46 -19z m35 -35 c-29 -30 -46 -20 -19 11
10 12 13 18 7 14 -7 -4 -13 -3 -13 3 0 14 23 19 37 7 9 -8 6 -17 -12 -35z
m162 -417 c-3 -3 -12 -4 -19 -1 -8 3 -5 6 6 6 11 1 17 -2 13 -5z"/>
<path d="M1103 947 c0 -7 -3 -23 -6 -37 l-7 -25 12 25 c7 14 16 28 21 31 5 3
2 9 -5 12 -8 3 -15 0 -15 -6z"/>
<path d="M1311 914 c0 -11 3 -14 6 -6 3 7 2 16 -1 19 -3 4 -6 -2 -5 -13z"/>
<path d="M1255 889 c6 -30 15 -37 15 -11 0 11 -4 23 -9 27 -6 3 -8 -4 -6 -16z"/>
<path d="M1087 861 c-3 -11 -2 -19 1 -17 4 2 13 -2 20 -10 11 -12 10 -14 -3
-14 -14 0 -15 -15 -13 -104 2 -84 6 -102 16 -94 8 7 11 23 7 42 -3 17 -7 57
-8 89 -3 52 1 61 24 59 3 -1 6 5 6 13 0 8 -4 12 -8 9 -5 -2 -14 7 -22 22 -13
26 -14 26 -20 5z"/>
<path d="M1117 863 c3 -7 6 -13 8 -13 2 0 5 6 8 13 3 8 -1 14 -8 14 -7 0 -11
-6 -8 -14z"/>
<path d="M1267 827 c-2 -12 -8 -31 -11 -42 -5 -13 -3 -12 7 4 8 14 22 28 31
31 14 5 14 7 -3 17 -16 10 -20 9 -24 -10z"/>
<path d="M1170 820 c-6 -11 -20 -20 -30 -20 -11 0 -20 -4 -20 -9 0 -6 9 -8 21
-6 15 3 19 0 15 -10 -3 -9 1 -15 10 -15 10 0 14 6 11 14 -3 7 1 25 8 40 8 14
10 26 5 26 -5 0 -14 -9 -20 -20z"/>
<path d="M1304 802 c-19 -12 -34 -27 -34 -32 0 -14 18 -21 25 -10 3 5 19 10
35 10 31 0 36 -23 9 -42 -11 -8 -10 -9 4 -4 15 5 16 3 6 -15 -7 -13 -7 -19 -1
-15 6 3 13 -2 15 -11 3 -10 5 8 6 39 1 55 0 57 -29 63 -38 8 -28 28 11 21 20
-3 29 0 29 9 0 20 -37 14 -76 -13z"/>
<path d="M1296 742 c-3 -6 -1 -14 5 -17 14 -9 20 -2 10 14 -6 8 -11 9 -15 3z"/>
<path d="M1140 729 c-19 -8 -21 -12 -11 -19 8 -4 11 -15 8 -25 -4 -10 -3 -14
4 -9 6 4 15 0 20 -7 7 -11 9 -9 10 6 0 11 2 30 5 43 4 24 1 25 -36 11z"/>
<path d="M1286 694 c-9 -24 -7 -31 5 -14 9 12 10 11 6 -7 -3 -14 2 -28 14 -39
18 -17 27 -40 11 -30 -4 2 -14 1 -22 -5 -11 -6 -4 -9 23 -9 23 0 36 -4 32 -10
-3 -5 -1 -18 5 -27 9 -15 10 -11 6 18 -2 21 -15 47 -30 62 -23 23 -31 44 -27
70 2 14 -17 7 -23 -9z"/>
<path d="M1330 664 c0 -8 5 -12 10 -9 6 3 10 10 10 16 0 5 -4 9 -10 9 -5 0
-10 -7 -10 -16z"/>
<path d="M1143 642 c9 -4 -36 -42 -51 -42 -5 0 -15 -7 -22 -15 -10 -12 -10
-19 -2 -27 9 -9 12 -7 12 9 0 20 3 21 32 12 55 -15 77 -12 71 11 -3 11 -10 20
-15 20 -6 0 -5 7 2 15 8 9 8 15 2 15 -6 0 -16 2 -24 3 -7 2 -10 2 -5 -1z m-3
-42 c0 -5 -4 -10 -10 -10 -5 0 -10 5 -10 10 0 6 5 10 10 10 6 0 10 -4 10 -10z"/>
<path d="M1263 633 c-24 -9 -13 -23 18 -23 27 0 30 2 19 15 -13 16 -17 17 -37
8z"/>
<path d="M1157 529 c-28 -29 -47 -37 -47 -19 0 6 7 10 15 10 8 0 15 5 15 10 0
21 -66 10 -90 -15 -13 -14 -29 -25 -37 -25 -7 0 -13 -4 -13 -10 0 -16 60 -11
125 9 42 13 60 24 59 35 -1 9 2 16 7 16 5 0 9 5 9 10 0 16 -13 10 -43 -21z"/>
<path d="M1570 1889 c0 -90 -7 -249 -14 -354 -8 -104 -18 -272 -22 -372 l-7
-183 92 0 c84 0 91 1 91 20 0 11 4 20 10 20 10 0 16 32 24 124 3 36 1 55 -4
50 -6 -6 -11 -33 -12 -62 -1 -28 -6 -46 -10 -39 -8 13 -11 4 -9 -29 1 -11 -3
-32 -8 -47 -15 -38 -41 -25 -43 22 -1 35 -1 35 -8 -9 l-7 -45 -1 55 c-1 32 -9
65 -17 78 -11 15 -12 20 -3 17 8 -3 14 4 14 20 1 14 -3 25 -9 25 -8 0 -8 3 0
11 6 6 9 18 6 25 -3 8 0 14 6 14 7 0 11 -25 11 -70 0 -64 2 -70 20 -70 11 0
23 8 26 18 3 9 10 25 15 36 7 13 7 16 0 11 -13 -8 -15 7 -2 20 6 6 6 28 1 55
-12 60 -12 80 0 80 6 0 10 -25 10 -55 0 -44 3 -53 15 -49 9 4 15 18 14 33 l-1
26 -8 -25 c-7 -21 -8 -22 -9 -4 -1 11 3 24 8 30 5 5 11 25 14 44 2 19 4 -1 5
-45 0 -44 -3 -114 -7 -155 -8 -76 -2 -94 26 -83 18 7 46 -5 38 -17 -4 -7 -14
-6 -28 2 -20 10 -21 10 -8 -5 7 -10 9 -17 3 -17 -5 0 -15 6 -22 14 -13 17 -40
10 -40 -9 0 -7 7 -16 16 -19 25 -10 124 -7 124 3 0 16 -18 22 -24 9 -3 -7 -3
5 1 26 11 74 9 310 -4 331 -10 17 -11 11 -9 -35 2 -30 1 -40 -1 -21 -2 19 -11
44 -20 58 -15 22 -14 23 4 20 35 -5 53 -33 54 -84 1 -31 3 -37 6 -18 7 56 14
76 23 70 6 -4 9 -51 8 -108 l-2 -102 -6 95 -6 95 -4 -120 -4 -120 -6 80 c-5
58 -7 67 -9 35 -1 -25 -5 -71 -8 -103 -3 -35 0 -70 7 -87 12 -29 14 -29 86
-29 40 0 78 -2 83 -5 14 -9 17 27 17 173 -1 80 -5 136 -11 138 -6 2 -9 -50 -7
-147 l3 -149 -35 1 c-31 1 -36 5 -37 27 l-1 26 -9 -25 c-6 -18 -8 -10 -5 33 1
31 1 57 -1 57 -1 0 -9 -16 -17 -35 -12 -27 -21 -35 -40 -35 -20 0 -26 5 -25
23 0 21 1 21 9 2 6 -17 9 -14 15 18 4 20 11 40 16 43 5 3 9 50 9 105 0 84 2
98 13 87 8 -7 17 -26 21 -41 5 -20 13 -27 31 -27 13 0 26 4 29 9 4 5 -2 7 -12
4 -25 -6 -49 24 -36 44 13 21 58 38 51 20 -2 -6 -11 -11 -18 -9 -11 3 -11 1
-2 -8 7 -8 23 -9 45 -4 32 7 32 8 8 15 l-25 7 25 2 c21 2 20 3 -10 11 -19 4
-43 6 -52 3 -13 -4 -15 0 -11 16 4 17 8 18 14 8 7 -11 9 -11 9 1 0 8 -8 20
-17 27 -17 12 -17 12 2 11 16 -2 20 4 19 30 -1 18 -9 40 -18 48 -22 23 -20 25
17 21 17 -3 43 -5 57 -5 25 -1 26 -3 24 -64 0 -35 -4 -69 -8 -75 -3 -6 -2 -14
4 -17 6 -4 8 -14 6 -23 -3 -10 -8 -89 -11 -176 -3 -87 -8 -163 -11 -167 -3 -5
3 -9 13 -10 10 0 13 -3 7 -5 -7 -3 -8 -23 -3 -57 4 -28 7 -104 7 -167 1 -63 4
-154 7 -202 4 -55 2 -89 -4 -93 -6 -3 -61 -8 -123 -10 -62 -3 -170 -7 -241
-10 -99 -5 -128 -3 -131 7 -3 7 -8 85 -11 173 -4 88 -9 191 -10 228 -5 87 -1
96 38 93 18 -1 47 2 65 5 42 9 53 -10 46 -77 -9 -78 -8 -117 6 -188 10 -54 16
-66 31 -66 21 0 26 -25 7 -33 -10 -4 -10 -6 0 -6 8 -1 11 -10 7 -28 -4 -23 -4
-25 4 -8 7 14 10 16 10 5 1 -9 -4 -21 -11 -28 -9 -9 -8 -12 4 -12 14 0 16 19
14 163 -1 89 1 176 5 192 13 56 17 115 8 115 -5 0 -9 -11 -9 -25 0 -13 -10
-34 -22 -46 -13 -12 -18 -19 -11 -15 17 9 25 -10 9 -23 -9 -8 -14 -35 -13 -86
0 -79 11 -95 16 -23 3 63 11 60 11 -5 0 -32 -3 -57 -8 -57 -4 0 -7 -14 -7 -32
0 -17 -5 -33 -11 -35 -12 -4 -35 121 -33 185 1 34 2 35 10 12 6 -18 7 -9 5 33
-2 31 0 60 5 63 5 3 9 10 9 15 0 6 -4 7 -10 4 -5 -3 -16 -3 -22 2 -9 5 -1 10
22 14 20 4 -17 7 -84 8 l-119 1 6 -132 c4 -73 10 -198 13 -278 l7 -145 151 7
c83 4 207 10 275 14 l123 6 -6 162 c-4 88 -11 229 -17 311 -7 102 -6 213 1
345 5 107 10 214 10 238 l0 43 -74 -2 c-40 -1 -77 0 -82 3 -5 2 -24 5 -43 7
-29 1 -32 -1 -21 -14 7 -8 16 -13 20 -10 5 3 18 -11 30 -30 25 -40 30 -44 23
-15 -7 26 9 26 25 0 15 -24 7 -44 -14 -36 -10 4 -14 -3 -14 -24 0 -20 -5 -30
-15 -30 -18 0 -19 12 -4 27 15 15 3 34 -16 26 -9 -3 -22 0 -29 6 -8 7 -17 8
-20 3 -3 -5 -16 -7 -30 -5 -13 3 -36 -3 -50 -12 -24 -16 -26 -16 -26 -1 0 10
7 16 17 14 10 -2 19 4 21 15 2 12 -3 17 -20 18 -23 1 -23 1 2 8 15 4 20 10 13
14 -6 4 -18 5 -26 1 -9 -3 -16 3 -20 16 -4 18 -3 19 9 9 8 -6 17 -9 21 -6 3 4
13 1 21 -6 13 -10 15 -9 9 6 -4 10 -7 21 -7 23 0 2 -21 4 -47 4 -43 0 -45 -1
-31 -17 22 -25 31 -62 20 -76 -6 -7 -9 -32 -7 -57 1 -25 1 -39 -2 -32 -3 6 -9
12 -14 12 -6 0 -7 -5 -3 -12 4 -7 3 -8 -4 -4 -7 4 -12 2 -12 -3 0 -6 -4 -11
-10 -11 -6 0 -5 9 1 24 8 16 17 23 28 19 12 -4 13 -3 3 5 -8 5 -11 19 -7 38 3
16 -4 5 -15 -23 -12 -29 -25 -53 -30 -53 -5 0 6 34 25 76 38 84 42 98 20 68
-11 -14 -14 -15 -15 -4 0 13 -1 13 -10 0 -5 -8 -10 -19 -10 -25 0 -5 5 -3 10
5 13 19 14 -3 1 -28 -5 -9 -14 -29 -21 -44 -8 -16 -18 -24 -26 -21 -8 3 -14
-1 -14 -11 0 -9 6 -16 13 -16 8 0 21 -8 30 -18 16 -17 14 -18 -20 -14 -27 3
-40 0 -50 -14 -11 -15 -13 -15 -13 -2 0 8 7 21 16 29 9 7 13 21 10 32 -3 13 6
33 25 56 16 19 29 43 29 51 0 9 5 21 11 27 16 16 2 33 -26 33 -35 0 -77 -18
-70 -31 4 -6 13 -8 21 -5 8 3 14 2 15 -2 0 -4 2 -16 4 -27 2 -10 -1 -25 -6
-32 -6 -7 -8 -17 -4 -23 3 -5 1 -10 -5 -10 -6 0 -14 8 -17 18 -4 9 -13 23 -20
30 -8 9 -11 23 -6 40 3 15 6 32 6 39 0 7 4 13 8 13 4 0 8 87 10 193 1 105 3
218 4 251 l2 58 129 -2 c155 -2 316 -7 328 -9 9 -1 2 -443 -8 -460 -4 -6 -26
-9 -54 -7 -26 3 -76 1 -112 -3 l-65 -8 100 -3 c55 -1 114 -3 130 -4 l30 -1 2
135 c2 74 4 190 5 258 l3 122 -160 0 c-88 0 -204 3 -257 7 l-98 6 0 -164z
m384 -411 c-4 -6 -10 -5 -15 3 -14 22 -10 33 6 19 8 -7 12 -17 9 -22z m-299
-8 c3 -6 -1 -7 -9 -4 -18 7 -21 14 -7 14 6 0 13 -4 16 -10z m-81 -73 c-3 -8 2
-20 11 -27 19 -16 19 -44 1 -73 -11 -16 -11 -28 -4 -47 l11 -25 10 33 c7 24
16 32 33 32 31 0 31 -26 0 -34 -21 -5 -25 -14 -33 -68 -9 -55 -7 -65 9 -80 13
-12 18 -30 18 -67 0 -48 -1 -50 -22 -42 -25 9 -32 11 -49 11 -7 0 -8 38 -4
123 4 67 9 125 11 129 2 3 1 8 -3 10 -11 4 -3 138 8 138 4 0 6 -6 3 -13z m346
-7 c-24 -15 -36 -11 -14 4 10 8 21 12 24 10 2 -3 -2 -9 -10 -14z m-72 -10 c3
-12 2 -12 -8 -3 -7 6 -19 9 -26 6 -8 -3 -14 0 -14 7 0 16 43 8 48 -10z m34
-24 c-2 -5 -9 -1 -14 8 -5 9 -6 21 -2 28 9 14 25 -22 16 -36z m-98 19 c-3 -8
1 -24 10 -37 18 -25 20 -123 6 -238 -8 -57 -8 -51 -5 40 1 58 -1 125 -5 150
-6 38 -7 30 -10 -50 -1 -52 -3 -119 -4 -147 0 -29 -4 -53 -9 -53 -7 0 1 312 9
338 2 6 6 12 8 12 3 0 3 -7 0 -15z m166 -46 c0 -10 -4 -19 -10 -19 -5 0 -6 7
-3 17 4 10 2 14 -5 9 -6 -3 -13 -3 -16 2 -2 4 4 9 15 9 13 1 19 -5 19 -18z
m-264 -89 c15 -15 2 -93 -16 -97 -12 -4 -12 -3 -2 5 16 11 16 11 -3 56 -17 40
-5 62 21 36z m150 -37 c-3 -21 -5 -66 -6 -100 0 -38 -4 -63 -11 -63 -6 0 -8
11 -5 28 3 15 7 60 8 99 2 40 7 73 11 73 5 0 6 -17 3 -37z m72 -195 c-2 -5 -8
-9 -13 -9 -5 0 -11 4 -13 9 -1 5 4 9 13 9 9 0 14 -4 13 -9z"/>
<path d="M1570 1336 c0 -8 5 -18 10 -21 6 -3 10 1 10 9 0 8 -4 18 -10 21 -5 3
-10 -1 -10 -9z"/>
<path d="M1084 1970 c-18 -14 -33 -31 -34 -38 0 -8 12 -4 33 11 36 28 97 45
97 28 0 -6 7 -8 17 -4 11 4 28 -7 55 -37 21 -25 38 -39 38 -33 0 7 -5 15 -10
18 -6 4 -8 10 -5 14 7 12 -72 64 -84 56 -6 -3 -11 -2 -11 4 0 19 -63 6 -96
-19z"/>
<path d="M1774 1956 c-35 -19 -54 -38 -48 -47 3 -5 -2 -6 -10 -3 -10 4 -15 0
-14 -13 1 -10 -2 -28 -6 -40 -9 -29 -3 -29 42 2 44 30 80 32 132 5 43 -22 55
-36 40 -45 -5 -3 -10 -17 -10 -31 0 -13 -4 -24 -10 -24 -5 0 -10 -12 -10 -27
l0 -28 20 30 c13 20 20 24 20 13 0 -9 -5 -18 -11 -20 -9 -3 -17 -58 -20 -130
0 -10 -8 -18 -17 -18 -15 0 -15 2 -2 10 8 5 10 10 3 10 -8 0 -7 12 3 45 11 37
11 47 0 57 -7 7 -11 20 -9 29 6 22 -10 31 -60 35 -42 4 -57 -6 -57 -38 0 -14
8 -18 38 -17 32 1 33 2 12 8 -14 4 -26 15 -28 25 -4 16 -2 16 27 2 35 -18 45
-20 36 -6 -3 6 -1 10 4 10 14 0 14 -17 0 -25 -6 -5 -3 -13 10 -22 24 -16 28
-43 6 -43 -8 0 -15 -5 -15 -11 0 -6 -9 -8 -22 -3 -13 4 -31 8 -41 9 -25 2 -47
25 -24 25 9 0 17 5 17 10 0 6 -6 10 -14 10 -8 0 -21 3 -30 6 -24 9 -19 -15 10
-53 22 -29 31 -34 53 -29 l26 6 -25 -15 c-24 -14 -26 -13 -57 23 -32 37 -33
37 -33 11 0 -36 36 -79 65 -79 13 0 27 -5 30 -10 4 -6 16 -8 28 -4 12 4 30 7
40 6 21 -1 72 71 64 92 -4 10 6 15 34 20 21 3 39 9 39 13 0 3 -18 39 -40 79
-27 49 -39 83 -38 108 1 39 -12 61 -53 82 -33 17 -66 17 -95 0z m80 -27 c-3
-5 1 -6 9 -3 16 6 34 -14 34 -38 0 -22 1 -22 -26 1 -25 22 -79 19 -119 -6
l-24 -15 23 31 c13 17 29 31 36 31 8 0 12 -4 8 -9 -3 -6 4 -9 15 -8 21 1 21 1
-1 18 -17 12 -19 18 -8 21 18 6 60 -12 53 -23z m104 -218 c-2 -29 -5 -30 -57
-22 -8 2 42 51 51 51 5 0 7 -13 6 -29z m-111 -100 c0 -11 -5 -17 -9 -15 -4 3
-8 0 -8 -5 0 -6 -11 -11 -25 -11 -14 0 -25 5 -25 10 0 6 6 10 13 9 28 -3 39 2
33 16 -3 9 0 15 9 15 7 0 13 -9 12 -19z"/>
<path d="M1103 1928 c-46 -12 -67 -47 -58 -98 7 -44 25 -45 25 -2 0 22 -2 24
-11 12 -9 -12 -9 -11 -4 5 4 11 8 26 8 32 0 7 10 21 21 30 20 17 20 17 6 -1
-18 -23 -24 -54 -7 -37 16 16 27 14 21 -4 -7 -18 7 -20 24 -3 9 9 12 9 12 0 0
-17 42 -15 68 4 28 19 52 5 52 -31 0 -18 -5 -22 -32 -21 -18 1 -39 5 -46 10
-8 5 -21 1 -33 -10 -12 -11 -32 -17 -49 -16 -17 2 -29 -2 -33 -12 -4 -9 -3
-15 1 -14 4 1 17 -2 30 -6 17 -6 29 -3 43 10 15 13 22 15 31 6 27 -27 102 0
109 39 4 24 -19 67 -46 85 -35 23 -93 32 -132 22z m88 -28 c5 0 9 -4 9 -10 0
-16 -47 -22 -72 -9 l-23 13 25 7 c14 4 31 5 38 3 8 -2 18 -4 23 -4z"/>
<path d="M1847 1824 c-3 -16 -3 -31 -1 -34 8 -7 37 15 42 31 3 11 2 11 -7 -1
-8 -12 -11 -10 -19 10 l-9 24 -6 -30z"/>
<path d="M1728 1834 c-11 -10 4 -44 19 -44 10 0 12 6 8 19 -4 15 0 21 17 24
18 3 16 5 -8 6 -17 0 -33 -2 -36 -5z"/>
<path d="M1810 1826 c0 -2 7 -6 15 -10 8 -3 15 -1 15 4 0 6 -7 10 -15 10 -8 0
-15 -2 -15 -4z"/>
<path d="M1690 1796 c0 -7 -2 -29 -5 -47 l-5 -34 14 35 c18 42 19 60 6 60 -5
0 -10 -6 -10 -14z"/>
<path d="M1261 1768 c3 -24 -20 -68 -35 -68 -4 0 -6 9 -3 19 7 26 -38 47 -58
27 -12 -12 -12 -16 -1 -26 11 -9 17 -7 24 7 12 21 25 13 16 -10 -8 -22 -31
-28 -59 -15 -19 9 -24 16 -19 32 5 16 3 18 -6 10 -13 -13 -10 -49 5 -50 6 0
18 -4 29 -9 11 -5 26 -3 38 4 23 15 31 10 22 -13 -3 -9 -14 -16 -23 -16 -13 0
-13 -2 -2 -9 17 -11 6 -31 -18 -31 -36 0 -71 24 -71 50 0 14 -5 32 -10 40 -8
11 -10 8 -7 -15 2 -16 0 -42 -4 -58 -6 -23 -2 -33 26 -63 28 -29 40 -35 59
-30 54 13 77 27 86 50 5 13 14 27 20 31 8 5 9 20 5 44 -6 33 -5 34 8 17 17
-24 47 -15 47 13 0 12 -11 28 -25 37 -14 9 -25 25 -25 35 0 11 -5 19 -11 19
-6 0 -9 -10 -8 -22z m-11 -109 c0 -20 -4 -29 -12 -26 -7 2 -19 -3 -26 -12 -10
-13 -10 -10 0 14 12 27 29 54 36 55 1 0 2 -14 2 -31z m-18 -71 c-7 -7 -12 -8
-12 -2 0 14 12 26 19 19 2 -3 -1 -11 -7 -17z m-42 4 c0 -4 -9 -8 -20 -8 -11 0
-20 4 -20 8 0 4 9 8 20 8 11 0 20 -4 20 -8z m-65 -12 c3 -5 1 -10 -4 -10 -6 0
-11 5 -11 10 0 6 2 10 4 10 3 0 8 -4 11 -10z"/>
<path d="M1710 1743 c0 -11 7 -23 15 -27 19 -7 19 3 0 28 -15 19 -15 19 -15
-1z"/>
<path d="M1800 1690 c-8 -5 -8 -10 -2 -14 13 -8 62 -4 56 5 -7 11 -41 17 -54
9z"/>
<path d="M1252 1510 c-7 -12 -21 -24 -31 -28 -16 -6 -17 -9 -5 -20 9 -8 14 -9
14 -2 0 14 26 41 33 34 2 -3 7 4 10 16 7 26 -5 26 -21 0z"/>
<path d="M1817 1500 c3 -11 0 -27 -7 -35 -10 -12 -10 -15 1 -16 8 -1 24 -3 37
-4 12 -1 22 2 22 6 0 5 -4 9 -10 9 -5 0 -10 5 -10 10 0 21 20 9 26 -15 8 -31
24 -33 24 -2 0 17 2 19 9 7 6 -8 7 -18 5 -22 -3 -4 0 -8 5 -8 15 0 13 21 -3
43 -10 12 -16 15 -21 7 -5 -8 -14 -5 -30 10 -17 16 -24 18 -28 8 -4 -9 -6 -7
-6 5 -1 9 -5 17 -10 17 -5 0 -7 -9 -4 -20z m20 -42 c-3 -8 -6 -5 -6 6 -1 11 2
17 5 13 3 -3 4 -12 1 -19z"/>
<path d="M1352 1470 c1 -44 1 -45 8 -10 l6 35 8 -36 c5 -23 4 -46 -4 -60 -11
-23 -10 -23 4 -5 22 27 20 69 -4 97 l-19 24 1 -45z"/>
<path d="M1100 1491 c0 -5 9 -13 20 -16 11 -3 20 -13 20 -20 0 -8 5 -17 10
-20 6 -3 10 2 10 12 0 10 -13 27 -30 36 -16 10 -30 14 -30 8z"/>
<path d="M1700 1489 c0 -5 5 -7 10 -4 6 3 10 8 10 11 0 2 -4 4 -10 4 -5 0 -10
-5 -10 -11z"/>
<path d="M1100 1465 c1 -12 39 -59 44 -54 2 2 -7 18 -20 34 -13 17 -24 26 -24
20z"/>
<path d="M2660 1441 c0 -26 -4 -30 -32 -33 l-33 -3 33 -6 c46 -8 87 23 69 52
-18 29 -37 23 -37 -10z m30 -10 c0 -6 -4 -13 -10 -16 -5 -3 -10 1 -10 9 0 9 5
16 10 16 6 0 10 -4 10 -9z"/>
<path d="M2705 1460 c-3 -4 2 -11 10 -14 13 -5 12 -10 -7 -31 -12 -14 -28 -25
-35 -25 -7 0 -13 -4 -13 -9 0 -5 11 -8 25 -7 14 2 30 -3 36 -11 7 -7 16 -10
23 -5 6 5 17 7 24 6 6 -1 19 -2 27 -3 29 -2 15 -18 -17 -19 -53 -1 -67 -5 -61
-15 3 -5 -3 -7 -12 -5 -25 4 -30 25 -8 31 11 3 8 4 -8 4 -21 -1 -25 -5 -23
-26 4 -40 23 -65 63 -83 46 -22 61 -23 61 -3 0 11 -7 14 -27 10 -21 -4 -23 -3
-9 3 13 6 16 11 9 15 -7 4 -14 3 -18 -3 -10 -17 -21 -11 -22 12 -3 33 15 48
59 48 35 0 40 3 35 19 -3 11 0 22 7 24 8 3 11 -6 8 -27 -4 -31 -5 -32 -49 -31
-33 0 -47 -4 -50 -15 -4 -12 -3 -12 5 -1 6 9 12 10 16 2 5 -7 15 -7 31 -1 17
7 25 6 25 -1 0 -8 4 -8 13 0 8 6 16 8 19 5 9 -8 4 69 -5 83 -4 6 -1 14 5 16 7
3 -2 6 -19 6 -26 1 -33 5 -33 21 0 13 7 20 20 20 25 0 26 -17 3 -23 -14 -4
-12 -5 5 -6 16 -1 22 5 22 19 0 14 -7 20 -22 21 -13 1 -42 2 -66 4 -23 1 -45
-1 -47 -5z m68 -9 c4 -1 0 -12 -8 -25 -11 -16 -13 -26 -6 -31 6 -3 11 2 12 12
0 10 3 13 6 6 2 -7 13 -13 24 -13 12 0 16 -5 13 -15 -4 -8 -13 -15 -21 -15 -8
0 -11 5 -7 13 5 9 4 9 -6 0 -7 -6 -19 -9 -26 -6 -8 3 -14 -1 -14 -8 0 -8 -5
-6 -13 6 -9 11 -19 15 -27 10 -9 -6 -11 -4 -5 4 4 7 16 11 26 8 12 -3 19 0 19
10 0 8 -5 11 -12 8 -7 -4 -2 3 12 15 14 12 20 19 13 16 -6 -4 -14 -2 -17 3 -4
5 2 8 11 6 10 -2 21 -4 26 -4z m-63 -163 c0 -12 -1 -19 -3 -17 -1 2 -9 12 -16
22 -12 14 -11 17 3 17 10 0 16 -8 16 -22z"/>
<path d="M1017 1408 l5 -57 -33 -4 c-26 -3 -21 -4 17 -5 l51 -2 -4 53 c-6 73
-11 81 -13 22 l-2 -50 -13 50 -14 50 6 -57z"/>
<path d="M1575 1451 c-3 -5 -1 -12 5 -16 5 -3 10 -2 10 4 0 5 8 12 18 14 13 4
12 5 -5 6 -12 0 -24 -3 -28 -8z"/>
<path d="M1727 1453 c-4 -3 -7 -11 -7 -17 0 -6 5 -5 12 2 6 6 9 14 7 17 -3 3
-9 2 -12 -2z"/>
<path d="M2610 1440 c0 -14 6 -20 23 -19 16 1 18 2 5 6 -10 2 -18 8 -18 13 0
5 8 11 18 13 13 4 11 5 -5 6 -17 1 -23 -5 -23 -19z"/>
<path d="M1655 1400 c-9 -16 -11 -30 -6 -30 5 0 14 14 20 30 5 17 8 30 6 30
-3 0 -11 -13 -20 -30z"/>
<path d="M1092 1415 c-1 -5 3 -19 7 -30 6 -15 3 -23 -13 -32 -15 -9 -17 -12
-5 -13 19 0 59 36 58 53 0 7 -5 5 -12 -5 -10 -15 -13 -14 -23 10 -7 15 -12 23
-12 17z"/>
<path d="M2604 1359 c3 -17 6 -40 6 -51 0 -10 6 -18 13 -17 27 3 37 -2 37 -21
0 -13 -7 -20 -20 -20 -25 0 -26 17 -2 23 13 4 11 5 -5 6 -18 1 -23 -4 -23 -25
0 -23 3 -26 25 -22 14 3 26 0 26 -6 1 -6 4 3 8 19 5 22 2 38 -13 59 -18 27
-20 28 -27 10 -5 -13 -8 -3 -8 29 -1 28 -6 47 -12 47 -8 0 -9 -11 -5 -31z"/>
<path d="M2023 1355 c0 -8 6 -15 14 -15 7 0 13 7 13 15 0 8 -6 15 -13 15 -8 0
-14 -7 -14 -15z"/>
<path d="M2636 1355 c-3 -8 -1 -15 4 -15 6 0 10 7 10 15 0 8 -2 15 -4 15 -2 0
-6 -7 -10 -15z"/>
<path d="M1923 1245 c0 -27 2 -38 4 -22 2 15 2 37 0 50 -2 12 -4 0 -4 -28z"/>
<path d="M2780 1280 c0 -5 5 -10 10 -10 6 0 10 5 10 10 0 6 -4 10 -10 10 -5 0
-10 -4 -10 -10z"/>
<path d="M2818 1273 c-17 -20 -11 -49 11 -48 8 0 16 6 19 13 2 7 -2 11 -8 10
-7 -2 -15 3 -18 11 -3 9 0 11 8 6 8 -5 11 -4 6 3 -3 5 0 13 6 15 8 3 8 6 2 6
-6 1 -18 -7 -26 -16z"/>
<path d="M2680 1251 c0 -4 11 -13 25 -19 14 -6 25 -8 25 -3 0 4 -11 13 -25 19
-14 6 -25 8 -25 3z"/>
<path d="M1995 1230 c-16 -7 -17 -9 -3 -9 9 -1 20 4 23 9 7 11 7 11 -20 0z"/>
<path d="M1940 1195 c0 -19 4 -35 8 -35 4 0 6 16 4 35 -2 19 -6 35 -8 35 -2 0
-4 -16 -4 -35z"/>
<path d="M1923 1162 c1 -18 7 -38 14 -43 9 -8 11 -5 10 10 -1 12 -4 21 -8 21
-4 0 -10 10 -12 23 -3 13 -4 9 -4 -11z"/>
<path d="M1910 1110 c0 -5 5 -10 10 -10 6 0 10 5 10 10 0 6 -4 10 -10 10 -5 0
-10 -4 -10 -10z"/>
<path d="M1962 1090 c0 -14 2 -19 5 -12 2 6 2 18 0 25 -3 6 -5 1 -5 -13z"/>
<path d="M1910 1077 c0 -9 -4 -17 -10 -17 -5 0 -10 -4 -10 -10 0 -5 4 -10 9
-10 12 0 25 39 17 47 -3 4 -6 -1 -6 -10z"/>
<path d="M1820 940 c0 -5 5 -10 10 -10 6 0 10 5 10 10 0 6 -4 10 -10 10 -5 0
-10 -4 -10 -10z"/>
<path d="M1856 911 c4 -20 10 -43 13 -51 4 -8 5 -35 3 -60 -5 -75 -6 -103 -4
-157 2 -43 5 -53 20 -53 15 -1 14 -3 -4 -19 -20 -16 -20 -18 -5 -29 14 -9 13
-11 -7 -11 -13 -1 -21 -5 -17 -11 3 -5 12 -7 20 -4 8 3 20 0 28 -7 12 -12 12
-15 -1 -25 -13 -9 -13 -12 2 -17 11 -5 15 -3 10 5 -5 8 -2 9 10 5 10 -4 20 -7
22 -7 2 0 4 -4 4 -10 0 -5 -9 -10 -19 -10 -11 0 -23 -4 -26 -10 -11 -17 42
-11 56 7 11 13 11 17 1 20 -6 3 -9 10 -6 15 4 6 3 8 -3 5 -13 -8 -38 23 -39
48 0 12 -6 19 -14 17 -11 -3 -11 1 2 15 23 25 61 180 52 212 -8 30 -6 88 5
128 6 22 15 29 42 34 l34 6 -40 2 c-37 1 -41 -1 -43 -25 -1 -14 -5 -31 -9 -37
-4 -7 -6 -23 -5 -37 1 -14 -2 -32 -8 -40 -9 -13 -11 -13 -20 0 -5 8 -8 19 -7
25 2 5 -2 16 -10 23 -7 7 -13 30 -13 51 0 27 -4 38 -15 38 -12 0 -14 -8 -9
-36z m36 -96 c3 -13 1 -22 -3 -19 -9 5 -13 44 -5 44 2 0 6 -11 8 -25z m32 -40
c-5 -11 -2 -13 9 -9 19 7 18 -4 -9 -103 -10 -37 -22 -63 -30 -63 -11 0 -11 8
0 44 8 25 12 47 9 50 -8 7 9 96 18 96 5 0 6 -7 3 -15z m-35 -67 c-2 -48 -2
-49 -8 -18 -6 33 -3 70 5 70 2 0 3 -24 3 -52z"/>
<path d="M1695 520 c-3 -5 -2 -10 4 -10 5 0 13 5 16 10 3 6 2 10 -4 10 -5 0
-13 -4 -16 -10z"/>
<path d="M1704 489 c-3 -6 -2 -15 3 -20 5 -5 9 -1 10 11 2 22 -2 25 -13 9z"/>
<path d="M1765 461 c-3 -6 -18 -11 -33 -12 l-27 0 24 -10 c19 -7 28 -6 40 5 8
9 12 18 9 21 -3 4 -9 2 -13 -4z"/>
<path d="M1004 235 c-9 -22 4 -35 31 -33 18 2 25 8 25 22 0 20 0 20 -15 0 -12
-16 -16 -17 -24 -4 -5 8 -7 18 -5 22 3 4 3 8 -1 8 -3 0 -8 -7 -11 -15z"/>
<path d="M1082 237 c-16 -19 1 -37 31 -35 29 3 31 6 18 26 -7 11 -9 11 -14 -2
-8 -21 -27 -21 -27 0 0 9 5 12 12 8 7 -4 8 -3 4 4 -9 15 -11 15 -24 -1z"/>
<path d="M1818 228 c-4 -21 -1 -25 19 -25 12 0 23 4 23 10 0 6 -3 7 -7 3 -4
-3 -12 3 -19 15 -11 22 -11 22 -16 -3z"/>
<path d="M857 218 c-3 -10 -1 -18 4 -18 5 0 9 6 9 13 0 8 4 7 10 -3 8 -12 10
-11 10 6 0 26 -27 28 -33 2z"/>
<path d="M900 220 c0 -11 4 -20 8 -20 4 0 8 9 8 20 0 11 -4 20 -8 20 -4 0 -8
-9 -8 -20z"/>
<path d="M930 221 c0 -12 5 -21 10 -21 6 0 10 6 10 14 0 8 -4 18 -10 21 -5 3
-10 -3 -10 -14z"/>
<path d="M960 220 c0 -8 8 -16 19 -17 13 -1 17 4 14 16 -6 22 -33 23 -33 1z"/>
<path d="M1150 224 c0 -20 5 -22 86 -22 73 -1 85 2 82 15 -4 22 -28 29 -28 8
0 -9 -5 -13 -10 -10 -6 4 -8 11 -5 16 9 13 -29 11 -43 -3 -9 -9 -12 -9 -12 2
0 9 -5 8 -16 -6 -8 -10 -13 -14 -10 -7 4 6 2 14 -4 18 -5 3 -10 -2 -10 -11 0
-16 -1 -16 -15 2 -14 19 -14 19 -15 -2z m110 -4 c0 -5 -4 -10 -10 -10 -5 0
-10 5 -10 10 0 6 5 10 10 10 6 0 10 -4 10 -10z"/>
<path d="M1330 220 c0 -13 5 -20 13 -17 6 2 12 10 12 17 0 7 -6 15 -12 18 -8
2 -13 -5 -13 -18z"/>
<path d="M1410 220 c0 -11 5 -20 11 -20 5 0 8 4 4 9 -3 5 -1 12 5 16 5 3 10
-1 10 -10 0 -23 44 -16 48 8 2 9 -1 17 -7 17 -6 0 -11 -7 -11 -16 0 -8 -5 -12
-10 -9 -6 4 -8 10 -6 14 3 4 -6 8 -20 9 -18 1 -24 -3 -24 -18z"/>
<path d="M1497 218 c-6 -20 8 -25 16 -5 4 10 6 10 6 0 1 -7 5 -13 10 -13 5 0
7 8 4 18 -2 10 -11 19 -18 19 -7 0 -16 -9 -18 -19z"/>
<path d="M1583 222 c-10 -15 -13 -15 -22 -2 -5 8 -13 11 -16 8 -14 -14 6 -26
45 -26 29 -1 38 3 33 11 -4 7 0 7 10 -1 17 -15 40 -7 34 11 -5 17 -57 15 -58
-3 0 -12 -2 -11 -7 2 -7 17 -8 17 -19 0z"/>
<path d="M1690 218 c1 -23 1 -23 17 -3 14 17 15 18 9 2 -4 -14 -2 -18 12 -15
27 5 20 31 -10 35 -24 3 -28 0 -28 -19z"/>
<path d="M1760 222 c0 -12 4 -22 9 -22 10 0 9 26 -2 36 -4 4 -7 -2 -7 -14z"/>
<path d="M1787 226 c-6 -16 2 -28 14 -20 12 7 11 34 0 34 -5 0 -11 -6 -14 -14z"/>
<path d="M1870 220 c0 -11 4 -20 9 -20 5 0 7 9 4 20 -3 11 -7 20 -9 20 -2 0
-4 -9 -4 -20z"/>
<path d="M1892 223 c2 -13 14 -19 38 -20 19 -1 30 0 23 3 -7 3 -9 12 -6 20 3
8 0 14 -6 14 -6 0 -10 -3 -8 -7 1 -5 -2 -9 -8 -9 -5 -1 -9 2 -7 7 1 5 -5 9
-14 9 -9 0 -14 -7 -12 -17z"/>
<path d="M1970 221 c0 -15 7 -19 28 -19 20 1 28 6 28 19 0 11 -4 19 -8 19 -4
0 -8 -5 -8 -12 0 -9 -3 -9 -12 0 -17 17 -28 15 -28 -7z"/>
<path d="M2051 215 c0 -11 3 -14 6 -7 2 6 9 12 14 12 6 0 7 -4 4 -10 -11 -18
14 -11 25 8 11 16 11 16 6 0 -3 -10 -1 -18 5 -18 6 0 9 8 7 17 -2 12 -13 17
-36 18 -26 1 -32 -3 -31 -20z"/>
<path d="M2133 220 c-1 -11 2 -20 5 -20 4 0 8 9 9 20 1 11 -2 20 -5 20 -4 0
-8 -9 -9 -20z"/>
</g>
</svg>
